<svg width="57" height="57" viewBox="0 0 57 57" fill="none" xmlns="http://www.w3.org/2000/svg">
<circle cx="28.5" cy="28.5" r="28.5" fill="#F6F7FA"/>
<path d="M39.2879 25.7077C39.7365 22.7133 37.4549 21.1032 34.3376 20.0289L35.3491 15.9715L32.8804 15.3572L31.8946 19.3074C31.246 19.1445 30.5803 18.9931 29.916 18.8417L30.9089 14.8657L28.4402 14.25L27.4287 18.3059C26.8915 18.1831 26.3629 18.063 25.8515 17.9345L25.8543 17.9216L22.4484 17.0716L21.7913 19.7088C21.7913 19.7088 23.6242 20.1289 23.5856 20.1546C24.5857 20.4046 24.7657 21.0661 24.7357 21.5918L23.5842 26.2135C23.6528 26.2306 23.7414 26.2563 23.8414 26.2949L23.5799 26.2306L21.9656 32.7052C21.8427 33.0081 21.5327 33.4638 20.8327 33.291C20.8584 33.3267 19.0383 32.8438 19.0383 32.8438L17.8125 35.6696L21.0269 36.4711C21.6241 36.6211 22.2099 36.7783 22.7856 36.9254L21.7641 41.0285L24.2314 41.6428L25.2429 37.5855C25.9172 37.7669 26.5715 37.9355 27.2115 38.0955L26.2029 42.1357L28.6716 42.75L29.6931 38.6555C33.9047 39.4527 37.0706 39.1312 38.4035 35.3225C39.4779 32.2566 38.3507 30.4865 36.1348 29.3336C37.7492 28.9622 38.9636 27.9007 39.2879 25.7077ZM33.6447 33.6195C32.8833 36.6868 27.7187 35.0282 26.0443 34.6124L27.4016 29.1765C29.0759 29.5951 34.4433 30.4222 33.6447 33.6195ZM34.409 25.6634C33.7133 28.4536 29.4159 27.0349 28.023 26.6878L29.2516 21.7589C30.6446 22.1061 35.1348 22.7533 34.409 25.6634Z" fill="#F7931A"/>
</svg>
