<svg width="104" height="104" viewBox="0 0 104 104" fill="none" xmlns="http://www.w3.org/2000/svg">
<g filter="url(#filter0_i_76_82)">
<path fill-rule="evenodd" clip-rule="evenodd" d="M101.089 83.7557C101.089 72.4195 92.0847 63.2319 80.9751 63.2319H53.81C42.7004 63.2319 33.6965 72.4195 33.6965 83.7557C33.6965 89.4221 38.1985 94.0159 43.7549 94.0159H91.0334C96.5866 94.0159 101.089 89.4221 101.089 83.7557Z" fill="url(#paint0_linear_76_82)"/>
</g>
<g filter="url(#filter1_i_76_82)">
<path fill-rule="evenodd" clip-rule="evenodd" d="M67.3925 18.304C78.6482 18.304 87.7765 27.4289 87.7765 38.688C87.7765 49.9437 78.6482 59.072 67.3925 59.072C56.1335 59.072 47.0085 49.9437 47.0085 38.688C47.0085 27.4289 56.1335 18.304 67.3925 18.304Z" fill="url(#paint1_linear_76_82)"/>
</g>
<g filter="url(#filter2_bi_76_82)">
<path fill-rule="evenodd" clip-rule="evenodd" d="M87.955 87.0253C87.955 72.8688 76.4817 61.3955 62.3252 61.3955H27.7098C13.5534 61.3955 2.08008 72.8688 2.08008 87.0253C2.08008 94.1014 7.81672 99.8381 14.897 99.8381H75.1422C82.2183 99.8381 87.955 94.1014 87.955 87.0253Z" fill="#FFEFE6" style="mix-blend-mode:multiply"/>
<path d="M87.955 87.0253V87.0253C87.955 72.8688 76.4817 61.3955 62.3252 61.3955H27.7098C13.5534 61.3955 2.08008 72.8688 2.08008 87.0253C2.08008 94.1014 7.81672 99.8381 14.897 99.8381H75.1422C82.2183 99.8381 87.955 94.1014 87.955 87.0253" stroke="white" stroke-opacity="0.273622" stroke-width="1.27238"/>
</g>
<g filter="url(#filter3_bi_76_82)">
<path fill-rule="evenodd" clip-rule="evenodd" d="M45.3445 4.15991C59.5864 4.15991 71.1365 15.7058 71.1365 29.9519C71.1365 44.1938 59.5864 55.7439 45.3445 55.7439C31.0984 55.7439 19.5525 44.1938 19.5525 29.9519C19.5525 15.7058 31.0984 4.15991 45.3445 4.15991Z" fill="#FFEFE6" style="mix-blend-mode:multiply"/>
<path d="M45.3445 4.15991C59.5864 4.15991 71.1365 15.7058 71.1365 29.9519C71.1365 44.1938 59.5864 55.7439 45.3445 55.7439C31.0984 55.7439 19.5525 44.1938 19.5525 29.9519C19.5525 15.7058 31.0984 4.15991 45.3445 4.15991" stroke="white" stroke-opacity="0.273622" stroke-width="1.27238"/>
</g>
<g filter="url(#filter4_d_76_82)">
<path d="M33.6267 38.8267C33.6267 38.8267 37.44 42.9867 45.4134 42.9867C53.3867 42.9867 56.8534 38.8267 56.8534 38.8267" stroke="white" stroke-width="6"/>
</g>
<defs>
<filter id="filter0_i_76_82" x="33.6965" y="63.2319" width="67.3921" height="38.7839" filterUnits="userSpaceOnUse" color-interpolation-filters="sRGB">
<feFlood flood-opacity="0" result="BackgroundImageFix"/>
<feBlend mode="normal" in="SourceGraphic" in2="BackgroundImageFix" result="shape"/>
<feColorMatrix in="SourceAlpha" type="matrix" values="0 0 0 0 0 0 0 0 0 0 0 0 0 0 0 0 0 0 127 0" result="hardAlpha"/>
<feOffset dy="8"/>
<feGaussianBlur stdDeviation="10"/>
<feComposite in2="hardAlpha" operator="arithmetic" k2="-1" k3="1"/>
<feColorMatrix type="matrix" values="0 0 0 0 1 0 0 0 0 0.803083 0 0 0 0 0 0 0 0 1 0"/>
<feBlend mode="normal" in2="shape" result="effect1_innerShadow_76_82"/>
</filter>
<filter id="filter1_i_76_82" x="47.0085" y="18.304" width="40.7681" height="48.7681" filterUnits="userSpaceOnUse" color-interpolation-filters="sRGB">
<feFlood flood-opacity="0" result="BackgroundImageFix"/>
<feBlend mode="normal" in="SourceGraphic" in2="BackgroundImageFix" result="shape"/>
<feColorMatrix in="SourceAlpha" type="matrix" values="0 0 0 0 0 0 0 0 0 0 0 0 0 0 0 0 0 0 127 0" result="hardAlpha"/>
<feOffset dy="8"/>
<feGaussianBlur stdDeviation="10"/>
<feComposite in2="hardAlpha" operator="arithmetic" k2="-1" k3="1"/>
<feColorMatrix type="matrix" values="0 0 0 0 1 0 0 0 0 0.803083 0 0 0 0 0 0 0 0 1 0"/>
<feBlend mode="normal" in2="shape" result="effect1_innerShadow_76_82"/>
</filter>
<filter id="filter2_bi_76_82" x="-33.1431" y="26.1723" width="156.321" height="108.889" filterUnits="userSpaceOnUse" color-interpolation-filters="sRGB">
<feFlood flood-opacity="0" result="BackgroundImageFix"/>
<feGaussianBlur in="BackgroundImage" stdDeviation="17.2935"/>
<feComposite in2="SourceAlpha" operator="in" result="effect1_backgroundBlur_76_82"/>
<feBlend mode="normal" in="SourceGraphic" in2="effect1_backgroundBlur_76_82" result="shape"/>
<feColorMatrix in="SourceAlpha" type="matrix" values="0 0 0 0 0 0 0 0 0 0 0 0 0 0 0 0 0 0 127 0" result="hardAlpha"/>
<feOffset dy="-8"/>
<feGaussianBlur stdDeviation="4"/>
<feComposite in2="hardAlpha" operator="arithmetic" k2="-1" k3="1"/>
<feColorMatrix type="matrix" values="0 0 0 0 1 0 0 0 0 0.884934 0 0 0 0 0.84953 0 0 0 0.302557 0"/>
<feBlend mode="normal" in2="shape" result="effect2_innerShadow_76_82"/>
</filter>
<filter id="filter3_bi_76_82" x="-15.6707" y="-31.0633" width="122.03" height="122.03" filterUnits="userSpaceOnUse" color-interpolation-filters="sRGB">
<feFlood flood-opacity="0" result="BackgroundImageFix"/>
<feGaussianBlur in="BackgroundImage" stdDeviation="17.2935"/>
<feComposite in2="SourceAlpha" operator="in" result="effect1_backgroundBlur_76_82"/>
<feBlend mode="normal" in="SourceGraphic" in2="effect1_backgroundBlur_76_82" result="shape"/>
<feColorMatrix in="SourceAlpha" type="matrix" values="0 0 0 0 0 0 0 0 0 0 0 0 0 0 0 0 0 0 127 0" result="hardAlpha"/>
<feOffset dy="-8"/>
<feGaussianBlur stdDeviation="4"/>
<feComposite in2="hardAlpha" operator="arithmetic" k2="-1" k3="1"/>
<feColorMatrix type="matrix" values="0 0 0 0 1 0 0 0 0 0.884934 0 0 0 0 0.84953 0 0 0 0.302557 0"/>
<feBlend mode="normal" in2="shape" result="effect2_innerShadow_76_82"/>
</filter>
<filter id="filter4_d_76_82" x="25.4172" y="32.7712" width="39.7388" height="21.2153" filterUnits="userSpaceOnUse" color-interpolation-filters="sRGB">
<feFlood flood-opacity="0" result="BackgroundImageFix"/>
<feColorMatrix in="SourceAlpha" type="matrix" values="0 0 0 0 0 0 0 0 0 0 0 0 0 0 0 0 0 0 127 0" result="hardAlpha"/>
<feOffset dy="2"/>
<feGaussianBlur stdDeviation="3"/>
<feColorMatrix type="matrix" values="0 0 0 0 0.850635 0 0 0 0 0.430209 0 0 0 0 0.223333 0 0 0 0.395289 0"/>
<feBlend mode="normal" in2="BackgroundImageFix" result="effect1_dropShadow_76_82"/>
<feBlend mode="normal" in="SourceGraphic" in2="effect1_dropShadow_76_82" result="shape"/>
</filter>
<linearGradient id="paint0_linear_76_82" x1="18.1641" y1="74.9237" x2="20.145" y2="101.239" gradientUnits="userSpaceOnUse">
<stop stop-color="#FFBF62"/>
<stop offset="1" stop-color="#FF603E"/>
</linearGradient>
<linearGradient id="paint1_linear_76_82" x1="37.6124" y1="33.7876" x2="43.2351" y2="67.908" gradientUnits="userSpaceOnUse">
<stop stop-color="#FFBF62"/>
<stop offset="1" stop-color="#FF603E"/>
</linearGradient>
</defs>
</svg>
