<svg width="57" height="57" viewBox="0 0 57 57" fill="none" xmlns="http://www.w3.org/2000/svg">
<circle cx="28.5" cy="28.5" r="28.5" fill="#F6F7FA"/>
<path d="M31.4994 17.8125H21.9056L21.1119 22.2521L29.7642 22.2652C34.0244 22.2652 35.2889 23.8119 35.248 26.3791C35.2296 27.695 34.656 29.9207 34.4134 30.638C33.7581 32.5631 32.4079 34.7545 27.3473 34.7479L18.9376 34.7427L18.1438 39.1875H27.7125C31.0867 39.1875 32.5239 38.7933 34.0415 38.0931C37.4091 36.5399 39.4146 33.2132 40.2203 28.8712C41.4149 22.4103 39.9249 17.8125 31.4981 17.8125H31.4994Z" fill="#008CE7"/>
<path d="M27.1757 28.0893C27.4882 26.7905 27.5871 26.2697 27.5871 26.2697H17.7692C15.2587 26.2697 14.9 27.9047 14.6614 28.8936C14.3489 30.1871 14.25 30.7145 14.25 30.7145H24.0692C26.5784 30.7145 26.9371 29.0795 27.1757 28.0893Z" fill="#008CE7"/>
</svg>
