<svg width="57" height="57" viewBox="0 0 57 57" fill="none" xmlns="http://www.w3.org/2000/svg">
<circle cx="28.5" cy="28.5" r="28.5" fill="#F6F7FA"/>
<path fill-rule="evenodd" clip-rule="evenodd" d="M23.8658 26.341H30.0132V29.5985H23.8658V36.464H27.7432C29.2779 36.464 30.5333 36.2574 31.5108 35.8413C32.4883 35.4266 33.255 34.8524 33.8121 34.1171C34.382 33.3524 34.7699 32.4679 34.9464 31.5307C35.1523 30.4736 35.2525 29.3986 35.2457 28.3217C35.2525 27.2447 35.1523 26.1698 34.9464 25.1126C34.7701 24.1754 34.3822 23.2908 33.8121 22.5263C33.255 21.791 32.4869 21.2168 31.5108 20.8021C30.5333 20.386 29.2779 20.1794 27.7432 20.1794H23.8658V26.3424V26.341ZM19.9243 29.5985H17.8125V26.3424H19.9243V16.9219H29.2565C30.9807 16.9219 32.4727 17.2211 33.7338 17.8153C34.9949 18.4124 36.0237 19.2261 36.8231 20.2592C37.6211 21.2909 38.2153 22.4992 38.6043 23.8829C38.9934 25.2665 39.1872 26.7471 39.1872 28.3217C39.1969 29.8211 39.0003 31.3147 38.6029 32.7605C38.2153 34.1427 37.6211 35.3525 36.8217 36.3842C36.0237 37.4173 34.9949 38.231 33.7338 38.828C32.4727 39.4237 30.9793 39.7215 29.2565 39.7215H19.9243V29.5985Z" fill="#C3A634"/>
</svg>
