<svg width="57" height="57" viewBox="0 0 57 57" fill="none" xmlns="http://www.w3.org/2000/svg">
<circle cx="28.5" cy="28.5" r="28.5" fill="#F6F7FA"/>
<path d="M26.0808 35.1026L27.9219 28.8896L30.7608 28.0633L31.3646 26.0208L28.5514 26.8772L31.5487 16.6735C31.5699 16.5983 31.5733 16.5191 31.5587 16.4423C31.5442 16.3654 31.5119 16.293 31.4646 16.2308C31.4173 16.1685 31.3562 16.1181 31.2861 16.0835C31.2159 16.0488 31.1387 16.031 31.0605 16.0313H27.2497C27.103 16.0315 26.9603 16.0798 26.8436 16.1687C26.7268 16.2576 26.6424 16.3823 26.6031 16.5237L23.0321 28.5899L20.2146 29.4463L19.5938 31.4545L22.4069 30.5981L19.8635 39.1875H34.9056C35.0524 39.1877 35.1952 39.1402 35.3126 39.0522C35.43 38.9641 35.5156 38.8403 35.5565 38.6994L36.4129 35.7492C36.4348 35.674 36.4389 35.5947 36.4249 35.5177C36.4109 35.4406 36.3792 35.3678 36.3323 35.3051C36.2854 35.2424 36.2245 35.1915 36.1545 35.1564C36.0845 35.1212 36.0073 35.1028 35.929 35.1026H26.0808Z" fill="#365D99"/>
</svg>
