<svg width="127" height="24" viewBox="0 0 127 24" fill="none" xmlns="http://www.w3.org/2000/svg">
<g clip-path="url(#clip0_69_2569)">
<path d="M0 6.97912H4.13921L7.53596 16.6682L11.1926 6.97912H13.7355L17.3179 16.5568L20.7146 6.97912H24.891L18.7471 24H16.0557L12.4548 14.3295L8.76102 24.0186H6.08817L0 6.97912Z" fill="white"/>
<path d="M27.304 0H31.5174V9.13225C32.3527 8.40835 33.1694 7.87007 34.0232 7.5174C34.8585 7.16473 35.7123 6.97912 36.5661 6.97912C38.2367 6.97912 39.6288 7.53596 40.7982 8.7239C41.7819 9.72622 42.2645 11.2111 42.2645 13.1601V24H38.0882V16.9466C38.0882 14.9791 37.9954 13.6427 37.8098 12.9559C37.6241 12.2506 37.3086 11.7309 36.8631 11.3968C36.4176 11.0626 35.8608 10.877 35.1926 10.877C34.3388 10.877 33.5963 11.1555 32.9838 11.7309C32.3712 12.3063 31.9443 13.0858 31.703 14.0696C31.5731 14.5708 31.5174 15.7401 31.5174 17.5592V24H27.304V0Z" fill="white"/>
<path d="M48.0186 6.97912C46.8307 6.97912 45.9026 7.96288 45.9026 9.11369V24H50.1346V9.11369C50.1346 7.96288 49.2251 6.97912 48.0186 6.97912Z" fill="white"/>
<path d="M58.7471 6.97912V0H54.5151V24H58.7471V10.6914H61.2529V6.97912H58.7471Z" fill="white"/>
<path fill-rule="evenodd" clip-rule="evenodd" d="M79.9815 16.6682H67.007C67.1926 17.819 67.6938 18.7285 68.5105 19.4153C69.3272 20.1021 70.3667 20.4362 71.6288 20.4362C73.1323 20.4362 74.4316 19.8979 75.5268 18.8399L78.9235 20.4548C78.0697 21.6613 77.0674 22.5522 75.8794 23.1462C74.6915 23.7216 73.2994 24.0186 71.666 24.0186C69.1416 24.0186 67.0813 23.2204 65.5036 21.6241C63.9073 20.0278 63.1277 18.0232 63.1277 15.6102C63.1277 13.1415 63.9258 11.0812 65.5036 9.46636C67.0813 7.83295 69.0674 7.01624 71.4618 7.01624C74.0047 7.01624 76.065 7.83295 77.6428 9.46636C79.2391 11.0998 80.0186 13.2529 80.0186 15.9258L79.9815 16.6682ZM75.9537 13.4756C75.6938 12.5661 75.1555 11.8422 74.3759 11.2668C73.5964 10.71 72.6869 10.413 71.6474 10.413C70.5152 10.413 69.5314 10.7285 68.6776 11.3596C68.1393 11.7494 67.6567 12.4548 67.1926 13.4571H75.9537V13.4756Z" fill="white"/>
<path d="M47.9815 0C48.7425 0 49.4107 0.278422 49.949 0.816705C50.5059 1.37355 50.7657 2.0232 50.7657 2.82135C50.7657 3.60093 50.4873 4.25058 49.949 4.78886C49.4107 5.32715 48.7611 5.60557 48.0001 5.60557C47.2205 5.60557 46.5523 5.32715 46.014 4.7703C45.4571 4.21346 45.1973 3.54524 45.1973 2.7471C45.1973 1.98608 45.4757 1.33643 46.014 0.798144C46.5523 0.278422 47.2205 0 47.9815 0Z" fill="white"/>
<path d="M92.362 8.85383L91.8979 9.70766C91.8423 9.81903 91.8051 9.89327 91.7866 9.94896C91.768 10.0046 91.768 10.0603 91.768 10.116C91.768 10.2645 91.8237 10.3944 91.9351 10.5058C92.0464 10.6172 92.1949 10.6729 92.362 10.6729C92.529 10.6729 92.659 10.6172 92.7703 10.5058C92.8817 10.3944 92.9374 10.2645 92.9374 10.116C92.9374 9.94896 92.8817 9.81903 92.7703 9.70766C92.6775 9.63341 92.5847 9.57773 92.4734 9.55916L92.7518 9.03944L92.362 8.85383ZM92.4919 10.116C92.4919 10.1531 92.4734 10.1903 92.4548 10.2274C92.3991 10.2831 92.3063 10.2831 92.2506 10.2274C92.2135 10.1903 92.2135 10.1717 92.2135 10.116C92.2135 10.0789 92.2321 10.0418 92.2506 10.0046C92.2692 9.98608 92.3063 9.96752 92.3434 9.96752C92.3805 9.96752 92.4177 9.98608 92.4548 10.0046C92.4919 10.0418 92.4919 10.0789 92.4919 10.116ZM94.4037 2.24594L93.6613 3.30394L93.6427 3.32251V3.69374H94.3666V4.02784H94.8121V3.69374H94.9606V3.28538H94.8121V2.2645H94.4037V2.24594ZM94.1996 3.26682L94.3852 3.00696V3.26682H94.1996ZM84.7147 17.1694L85.3272 15.9814H84.6775V15.5731H85.9026V15.8329L85.123 17.355L84.7147 17.1694ZM92.3434 21.3086C92.3805 21.2715 92.3991 21.2343 92.3991 21.1601C92.3991 21.1044 92.3805 21.0487 92.3434 21.0302C92.2877 20.9745 92.2321 20.9559 92.1578 20.993C92.1392 21.0116 92.1021 21.0302 92.0836 21.0487L92.065 21.0673L91.7123 20.993L91.9351 19.9907H92.8446V20.3991H92.2877L92.2506 20.5476H92.2692C92.4362 20.5476 92.5847 20.6032 92.6961 20.7146C92.8075 20.826 92.8631 20.9745 92.8631 21.1415C92.8631 21.3086 92.8075 21.4571 92.6775 21.587C92.5476 21.6984 92.3991 21.7726 92.2321 21.7726C92.0836 21.7726 91.9351 21.7355 91.8237 21.6427C91.7123 21.5499 91.6381 21.4385 91.601 21.29L91.5824 21.2158H92.0464L92.065 21.2529C92.0836 21.29 92.1021 21.3271 92.1392 21.3457C92.1949 21.3643 92.2877 21.3643 92.3434 21.3086ZM92.1392 12.7332C92.2506 12.6218 92.3063 12.4919 92.3063 12.3434C92.3063 12.1763 92.2506 12.0464 92.1392 11.935C92.0464 11.8608 91.9536 11.8051 91.8423 11.7865L92.1207 11.2668L91.7309 11.0812L91.2669 11.935C91.2112 12.0464 91.174 12.1206 91.1555 12.1763C91.1369 12.232 91.1369 12.2877 91.1369 12.3434C91.1369 12.4919 91.1926 12.6218 91.304 12.7332C91.4153 12.8445 91.5638 12.9002 91.7309 12.9002C91.8794 12.9002 92.0279 12.8445 92.1392 12.7332ZM91.5824 12.3434C91.5824 12.3063 91.601 12.2691 91.6195 12.232C91.6381 12.2135 91.6752 12.1949 91.7123 12.1949C91.7495 12.1949 91.7866 12.2135 91.8237 12.232C91.8608 12.2691 91.8608 12.2877 91.8608 12.3434C91.8608 12.3805 91.8423 12.4176 91.8237 12.4548C91.768 12.5104 91.6752 12.5104 91.6195 12.4548C91.5824 12.4176 91.5824 12.3805 91.5824 12.3434ZM101.197 17.2993V16.9652H101.346V16.5568H101.197V15.536H100.77L100.028 16.594L100.009 16.6125V16.9838H100.733V17.3179H101.197V17.2993ZM100.566 16.5568L100.752 16.297V16.5568H100.566ZM90.71 12.8445C90.8028 12.8074 90.8771 12.7332 90.9327 12.6404C90.9884 12.5476 91.007 12.4548 91.007 12.3619C91.007 12.2691 90.9884 12.1763 90.9327 12.1021C90.8956 12.0464 90.8585 11.9907 90.8028 11.9536C90.8399 11.9165 90.8771 11.8608 90.8956 11.8237C90.9142 11.768 90.9327 11.7123 90.9327 11.6381C90.9327 11.5452 90.9142 11.4524 90.8585 11.3782C90.8028 11.3039 90.7471 11.2297 90.6543 11.1926C90.4873 11.0998 90.246 11.0998 90.0789 11.1926C89.9861 11.2297 89.9304 11.3039 89.8747 11.3782C89.8191 11.4524 89.8005 11.5452 89.8005 11.6381C89.8005 11.7123 89.8191 11.768 89.8376 11.8422C89.8562 11.8793 89.8747 11.9165 89.9119 11.9536C89.8562 12.0093 89.8191 12.065 89.7819 12.1206C89.7448 12.1949 89.7263 12.2877 89.7263 12.3805C89.7263 12.4919 89.7448 12.5847 89.8005 12.6775C89.8562 12.7703 89.9304 12.826 90.0232 12.8817C90.116 12.9188 90.2274 12.9374 90.3759 12.9374C90.5058 12.9002 90.6172 12.8817 90.71 12.8445ZM90.4501 11.7123C90.413 11.7494 90.3388 11.7494 90.2831 11.7123C90.2645 11.6937 90.246 11.6566 90.246 11.6381C90.246 11.6009 90.2645 11.5824 90.2831 11.5638C90.3017 11.5452 90.3202 11.5267 90.3573 11.5267C90.3945 11.5267 90.4316 11.5452 90.4501 11.5638C90.4687 11.5824 90.4873 11.6009 90.4873 11.6381C90.4687 11.6752 90.4687 11.6937 90.4501 11.7123ZM90.2274 12.2135C90.2645 12.1763 90.3202 12.1578 90.3759 12.1578C90.4316 12.1578 90.4873 12.1763 90.5244 12.2135C90.5615 12.2506 90.5801 12.2877 90.5801 12.3248C90.5801 12.3805 90.5615 12.4176 90.5244 12.4362C90.4502 12.4919 90.3017 12.4919 90.2274 12.4362C90.1903 12.3991 90.1717 12.3619 90.1717 12.3248C90.1717 12.2877 90.1903 12.2506 90.2274 12.2135ZM94.5894 21.7169V20.4176H94.1996L94.4594 20.0093H95.0348V21.7355H94.5894V21.7169ZM89.1323 20.529C89.0395 20.6218 88.9838 20.7332 88.9838 20.8631C88.9838 20.9559 89.0024 21.0487 89.0395 21.123C89.0766 21.1972 89.1323 21.2529 89.2251 21.29C89.3736 21.3643 89.5592 21.3643 89.7077 21.3086C89.7819 21.2715 89.8562 21.2158 89.9304 21.1415L89.9861 21.1044L90.3017 21.42L90.246 21.4571C90.116 21.587 89.9861 21.6613 89.8747 21.7169C89.7634 21.7726 89.6149 21.7912 89.4664 21.7912C89.188 21.7912 88.9652 21.6984 88.7796 21.5313C88.594 21.3643 88.5198 21.1415 88.5198 20.8817C88.5198 20.7146 88.5569 20.5661 88.6497 20.4176C88.7239 20.2877 88.8539 20.1763 89.0024 20.1021C89.2808 19.9536 89.6149 19.935 89.9119 20.065C90.0418 20.1206 90.1717 20.2135 90.2645 20.3248L90.3017 20.3805L89.9861 20.6775L89.9304 20.6218C89.8005 20.4733 89.6334 20.4176 89.4664 20.4176C89.3365 20.3805 89.2251 20.4362 89.1323 20.529ZM90.9327 21.7726C91.0998 21.7726 91.2297 21.7169 91.3411 21.6056C91.4525 21.4942 91.5082 21.3643 91.5082 21.2158C91.5082 21.0487 91.4525 20.9188 91.3411 20.8074C91.2483 20.7146 91.1555 20.6775 91.0441 20.6589L91.3225 20.1392L90.9327 19.9536L90.4687 20.8074C90.413 20.9188 90.3759 20.993 90.3573 21.0487C90.3388 21.1044 90.3388 21.1601 90.3388 21.2158C90.3388 21.3643 90.3945 21.4942 90.5058 21.6056C90.6172 21.7169 90.7657 21.7726 90.9327 21.7726ZM90.7843 21.1972C90.7843 21.1601 90.8028 21.123 90.8214 21.0858C90.8399 21.0673 90.8771 21.0487 90.9142 21.0487C90.9513 21.0487 90.9884 21.0673 91.0256 21.0858C91.0627 21.123 91.0627 21.1415 91.0627 21.1972C91.0627 21.2343 91.0441 21.2715 91.0256 21.3086C90.9699 21.3643 90.8771 21.3643 90.8214 21.3086C90.8028 21.2715 90.7843 21.2529 90.7843 21.1972ZM95.3875 21.6056L96 20.4176H95.3504V20.0093H96.5754V20.2691L95.7959 21.8097L95.3875 21.6056ZM93.4942 12.065C93.5499 11.9536 93.587 11.8793 93.6056 11.8237C93.6242 11.768 93.6242 11.7123 93.6242 11.6566C93.6242 11.5081 93.5685 11.3782 93.4571 11.2668C93.3457 11.1555 93.1973 11.0998 93.0302 11.0998C92.8631 11.0998 92.7332 11.1555 92.6218 11.2668C92.5105 11.3782 92.4548 11.5081 92.4548 11.6752C92.4548 11.8422 92.5105 11.9722 92.6218 12.0835C92.7147 12.1763 92.8075 12.2135 92.9188 12.232L92.6404 12.7517L93.0302 12.9374L93.4942 12.065ZM93.1787 11.6752C93.1787 11.7123 93.1601 11.7494 93.1416 11.7865C93.0859 11.8422 92.9931 11.8422 92.9374 11.7865C92.9003 11.7494 92.9003 11.7309 92.9003 11.6752C92.9003 11.6381 92.9188 11.6009 92.9374 11.5638C92.9745 11.5267 92.9931 11.5267 93.0488 11.5267C93.0859 11.5267 93.123 11.5452 93.1416 11.5638C93.1787 11.5824 93.1787 11.6195 93.1787 11.6752ZM91.1184 10.2274C91.1555 10.1903 91.174 10.1531 91.174 10.0789C91.174 10.0232 91.1555 9.96752 91.1184 9.94896C91.0627 9.89327 91.007 9.87471 90.9327 9.91183C90.9142 9.93039 90.8771 9.94896 90.8585 9.96752L90.8399 9.98608L90.4873 9.91183L90.71 8.90951H91.6195V9.31787H91.0627L91.0256 9.46636H91.0441C91.2112 9.46636 91.3597 9.52204 91.471 9.63341C91.5824 9.74478 91.6381 9.89327 91.6381 10.0603C91.6381 10.2274 91.5824 10.3759 91.4525 10.5058C91.3225 10.6172 91.174 10.6914 91.007 10.6914C90.8585 10.6914 90.71 10.6543 90.5986 10.5615C90.4873 10.4687 90.413 10.3573 90.3759 10.2088L90.3573 10.1346H90.8214L90.8399 10.1717C90.8585 10.2088 90.8771 10.2459 90.9142 10.2645C90.9513 10.2831 91.0627 10.2831 91.1184 10.2274ZM100.807 14.2367C100.807 14.4594 100.826 14.6264 100.882 14.7378C100.937 14.8677 101.012 14.9606 101.104 15.0162C101.197 15.0719 101.327 15.109 101.457 15.109C101.606 15.109 101.717 15.0719 101.81 15.0162C101.903 14.9606 101.977 14.8492 102.033 14.7193C102.088 14.5893 102.107 14.4223 102.107 14.1995C102.107 13.9768 102.088 13.8097 102.033 13.6798C101.977 13.5499 101.903 13.4571 101.81 13.3828C101.717 13.3271 101.587 13.29 101.457 13.29C101.253 13.29 101.086 13.3643 100.956 13.5313C100.845 13.6984 100.807 13.9211 100.807 14.2367ZM101.253 14.2367C101.253 14.0882 101.271 13.9768 101.29 13.9026C101.309 13.8283 101.327 13.7912 101.364 13.7726C101.401 13.7541 101.42 13.7355 101.457 13.7355C101.494 13.7355 101.55 13.7541 101.587 13.8283C101.624 13.884 101.643 13.9768 101.643 14.2367C101.643 14.4223 101.624 14.5708 101.568 14.645C101.531 14.7193 101.476 14.7193 101.439 14.7193C101.401 14.7193 101.346 14.7193 101.309 14.6264C101.29 14.5708 101.253 14.478 101.253 14.2367ZM85.2344 4.43619L84.7703 5.29002C84.7147 5.40139 84.6775 5.47564 84.659 5.53132C84.6404 5.58701 84.6404 5.64269 84.6404 5.69838C84.6404 5.84687 84.6961 5.9768 84.8075 6.08817C84.9188 6.19954 85.0673 6.25522 85.2344 6.25522C85.4014 6.25522 85.5314 6.19954 85.6427 6.08817C85.7541 5.9768 85.8098 5.84687 85.8098 5.69838C85.8098 5.53132 85.7541 5.40139 85.6427 5.29002C85.5499 5.21578 85.4571 5.16009 85.3457 5.14153L85.6242 4.62181L85.2344 4.43619ZM85.3829 5.69838C85.3829 5.7355 85.3643 5.77262 85.3457 5.80974C85.2901 5.86543 85.1973 5.86543 85.1416 5.80974C85.1044 5.77262 85.1044 5.75406 85.1044 5.69838C85.1044 5.66125 85.123 5.62413 85.1416 5.58701C85.1601 5.56845 85.1973 5.54988 85.2344 5.54988C85.2715 5.54988 85.3086 5.56845 85.3457 5.58701C85.3643 5.60557 85.3829 5.64269 85.3829 5.69838ZM85.3829 10.2274C85.42 10.1903 85.4385 10.1531 85.4385 10.116C85.4385 10.0603 85.42 10.0232 85.3643 9.98608C85.3086 9.94896 85.2344 9.93039 85.123 9.93039H85.0488V9.5406H85.1044C85.1973 9.5406 85.2344 9.52204 85.2529 9.50348C85.2715 9.48492 85.2901 9.48492 85.3086 9.4478C85.3272 9.42923 85.3272 9.41067 85.3272 9.39211C85.3272 9.37355 85.3272 9.35499 85.3086 9.33643C85.2901 9.31786 85.2715 9.31787 85.2344 9.31787C85.1973 9.31787 85.1787 9.31786 85.1601 9.33643C85.1416 9.35499 85.123 9.37355 85.1044 9.41067L85.0859 9.4478H84.659L84.6775 9.37355C84.6961 9.24362 84.7518 9.13225 84.826 9.058C84.9374 8.94664 85.0859 8.89095 85.2529 8.89095C85.4014 8.89095 85.5314 8.94664 85.6427 9.03944C85.7541 9.13225 85.8098 9.24362 85.8098 9.37355C85.8098 9.46636 85.7912 9.5406 85.7355 9.59629C85.717 9.63341 85.6798 9.67053 85.6427 9.68909C85.6984 9.72622 85.7541 9.76334 85.7912 9.81903C85.8655 9.89327 85.884 10.0046 85.884 10.116C85.884 10.2831 85.8283 10.413 85.6984 10.5244C85.5685 10.6357 85.42 10.6914 85.2344 10.6914C85.0488 10.6914 84.9003 10.6357 84.7889 10.5244C84.6775 10.413 84.6033 10.2831 84.6033 10.0974V10.0232H85.0488V10.0789C85.0673 10.1531 85.0859 10.1903 85.123 10.2274C85.1787 10.3016 85.3086 10.3016 85.3829 10.2274ZM89.2437 2.96984C89.2808 2.91415 89.2993 2.85847 89.2993 2.80278C89.2993 2.76566 89.2808 2.72854 89.2622 2.69142C89.2065 2.63573 89.0952 2.63573 89.0209 2.70998C88.9838 2.7471 88.9652 2.80278 88.9652 2.85847V2.91415H88.5198V2.83991C88.5198 2.65429 88.594 2.5058 88.7054 2.39443C88.8167 2.28306 88.9652 2.22738 89.1508 2.22738C89.2622 2.22738 89.3736 2.24594 89.4478 2.30162C89.5406 2.33875 89.6149 2.41299 89.652 2.5058C89.7077 2.59861 89.7263 2.67285 89.7263 2.76566C89.7263 2.87703 89.6891 2.9884 89.6334 3.09977C89.5778 3.21114 89.4664 3.34107 89.3179 3.50812L89.2437 3.58237H89.7448V3.99072H88.4641V3.74942L89.0024 3.2297C89.1323 3.11833 89.2065 3.02552 89.2437 2.96984ZM89.6334 8.85383L89.1694 9.70766C89.1137 9.81903 89.0766 9.89327 89.058 9.94896C89.0395 10.0046 89.0395 10.0603 89.0395 10.116C89.0395 10.2645 89.0952 10.3944 89.2065 10.5058C89.3179 10.6172 89.4664 10.6729 89.6334 10.6729C89.8005 10.6729 89.9304 10.6172 90.0418 10.5058C90.1532 10.3944 90.2089 10.2645 90.2089 10.116C90.2089 9.94896 90.1532 9.81903 90.0418 9.70766C89.949 9.63341 89.8562 9.57773 89.7448 9.55916L90.0232 9.03944L89.6334 8.85383ZM89.7819 10.116C89.7819 10.1531 89.7634 10.1903 89.7448 10.2274C89.6891 10.2831 89.5963 10.2831 89.5406 10.2274C89.5035 10.1903 89.5035 10.1717 89.5035 10.116C89.5035 10.0789 89.5221 10.0418 89.5406 10.0046C89.5592 9.98608 89.5963 9.96752 89.6334 9.96752C89.6706 9.96752 89.7077 9.98608 89.7448 10.0046C89.7634 10.0418 89.7819 10.0789 89.7819 10.116ZM89.1323 17.7262L88.6683 18.58C88.6126 18.6914 88.5754 18.7657 88.5569 18.8213C88.5383 18.877 88.5383 18.9327 88.5383 18.9884C88.5383 19.1369 88.594 19.2668 88.7054 19.3782C88.8167 19.4896 88.9652 19.5452 89.1323 19.5452C89.2993 19.5452 89.4293 19.4896 89.5406 19.3782C89.652 19.2668 89.7077 19.1369 89.7077 18.9884C89.7077 18.8213 89.652 18.6914 89.5406 18.58C89.4478 18.5058 89.355 18.4501 89.2437 18.4316L89.5221 17.9118L89.1323 17.7262ZM89.2622 18.9884C89.2622 19.0255 89.2437 19.0626 89.2251 19.0998C89.1694 19.1555 89.0766 19.1555 89.0209 19.0998C88.9838 19.0626 88.9838 19.0441 88.9838 18.9884C88.9838 18.9513 89.0024 18.9142 89.0209 18.877C89.0395 18.8585 89.0766 18.8399 89.1137 18.8399C89.1508 18.8399 89.188 18.8585 89.2251 18.877C89.2622 18.8956 89.2622 18.9327 89.2622 18.9884ZM84.6775 14.7378C84.7332 14.8677 84.8075 14.9606 84.9003 15.0162C84.9931 15.0719 85.123 15.109 85.2529 15.109C85.4014 15.109 85.5128 15.0719 85.6056 15.0162C85.6984 14.9606 85.7727 14.8492 85.8283 14.7193C85.8469 14.6636 85.8655 14.6079 85.884 14.5336V14.7378H86.6079V15.0719H87.0534V14.7378H87.2019V14.3295H87.0534V13.3086H86.6265L85.9026 14.348C85.9026 14.3109 85.9026 14.2552 85.9026 14.2181C85.9026 13.9954 85.884 13.8283 85.8283 13.6984C85.7727 13.5684 85.6984 13.4756 85.6056 13.4014C85.5128 13.3457 85.3829 13.3086 85.2529 13.3086C85.0488 13.3086 84.8817 13.3828 84.7518 13.5499C84.6404 13.6984 84.6033 13.9211 84.6033 14.2181C84.6033 14.4594 84.6218 14.6264 84.6775 14.7378ZM86.4223 14.348L86.6079 14.0882V14.348H86.4223ZM85.0488 14.2367C85.0488 14.0882 85.0673 13.9768 85.0859 13.9026C85.1044 13.8283 85.123 13.7912 85.1601 13.7726C85.1787 13.7541 85.2158 13.7355 85.2529 13.7355C85.2901 13.7355 85.3457 13.7541 85.3829 13.8283C85.42 13.884 85.4385 13.9768 85.4385 14.2367C85.4385 14.4223 85.42 14.5708 85.3643 14.645C85.3272 14.7193 85.2715 14.7193 85.2344 14.7193C85.1973 14.7193 85.1416 14.7193 85.1044 14.6264C85.0859 14.5708 85.0488 14.478 85.0488 14.2367ZM88.9838 11.0812L88.5198 11.935C88.4641 12.0464 88.4269 12.1206 88.4084 12.1763C88.3898 12.232 88.3898 12.2877 88.3898 12.3434C88.3898 12.4919 88.4455 12.6218 88.5569 12.7332C88.6682 12.8445 88.8167 12.9002 88.9838 12.9002C89.1508 12.9002 89.2808 12.8445 89.3921 12.7332C89.5035 12.6218 89.5592 12.4919 89.5592 12.3434C89.5592 12.1763 89.5035 12.0464 89.3921 11.935C89.2993 11.8608 89.2065 11.8051 89.0952 11.7865L89.3736 11.2668L88.9838 11.0812ZM89.1323 12.3434C89.1323 12.3805 89.1137 12.4176 89.0952 12.4548C89.0395 12.5104 88.9467 12.5104 88.891 12.4548C88.8539 12.4176 88.8539 12.3991 88.8539 12.3434C88.8539 12.3063 88.8724 12.2691 88.891 12.232C88.9095 12.2135 88.9467 12.1949 88.9838 12.1949C89.0209 12.1949 89.058 12.2135 89.0952 12.232C89.1137 12.2506 89.1323 12.2877 89.1323 12.3434ZM87.8515 8.50116L88.3156 7.64733C88.3713 7.53596 88.4084 7.46172 88.4269 7.40603C88.4455 7.35035 88.4455 7.29466 88.4455 7.23898C88.4455 7.09049 88.3898 6.96056 88.2785 6.84919C88.1671 6.73782 88.0186 6.68213 87.8515 6.68213C87.6845 6.68213 87.5546 6.73782 87.4432 6.84919C87.3318 6.96056 87.2761 7.09049 87.2761 7.25754C87.2761 7.42459 87.3318 7.55452 87.4432 7.66589C87.536 7.7587 87.6288 7.79582 87.7402 7.81438L87.4618 8.33411L87.8515 8.50116ZM87.7031 7.23898C87.7031 7.20186 87.7216 7.16473 87.7402 7.12761C87.7773 7.09049 87.7959 7.09049 87.8515 7.09049C87.8887 7.09049 87.9258 7.10905 87.9443 7.12761C87.9815 7.16473 87.9815 7.18329 87.9815 7.23898C87.9815 7.2761 87.9629 7.31322 87.9443 7.35035C87.8887 7.40603 87.7959 7.40603 87.7402 7.35035C87.7216 7.31322 87.7031 7.2761 87.7031 7.23898ZM95.7587 8.01856C95.7959 7.98144 95.8144 7.94431 95.8144 7.90719C95.8144 7.85151 95.7959 7.81438 95.7402 7.77726C95.6845 7.74014 95.6102 7.72158 95.4989 7.72158H95.4246V7.33179H95.4803C95.5731 7.33179 95.6102 7.31322 95.6288 7.29466C95.6474 7.2761 95.6659 7.2761 95.6845 7.23898C95.703 7.22042 95.703 7.20186 95.703 7.18329C95.703 7.16473 95.703 7.14617 95.6845 7.12761C95.6659 7.10905 95.6474 7.10905 95.6102 7.10905C95.5731 7.10905 95.5546 7.10905 95.536 7.12761C95.5174 7.14617 95.4989 7.16473 95.4803 7.20186L95.4617 7.23898H95.0348L95.0534 7.16473C95.072 7.0348 95.1276 6.92343 95.2019 6.84919C95.3133 6.73782 95.4618 6.68213 95.6288 6.68213C95.7773 6.68213 95.9072 6.73782 96.0186 6.83063C96.13 6.92343 96.1856 7.0348 96.1856 7.16473C96.1856 7.23898 96.1671 7.33179 96.1114 7.38747C96.0928 7.42459 96.0557 7.46172 96.0186 7.48028C96.0743 7.5174 96.13 7.55452 96.1671 7.61021C96.2413 7.70302 96.2599 7.79582 96.2599 7.90719C96.2599 8.07425 96.2042 8.20418 96.0743 8.31555C95.9443 8.42691 95.7959 8.4826 95.6102 8.4826C95.4246 8.4826 95.2761 8.42691 95.1648 8.33411C95.0534 8.22274 94.9792 8.09281 94.9792 7.90719V7.83295H95.4246V7.88863C95.4432 7.96288 95.4617 8 95.4989 8.03712C95.5546 8.07425 95.6845 8.07425 95.7587 8.01856ZM85.9026 5.69838C85.9026 5.80974 85.9212 5.90255 85.9768 5.99536C86.0325 6.08817 86.1068 6.14385 86.1996 6.19954C86.2924 6.23666 86.4037 6.25522 86.5522 6.25522C86.6822 6.25522 86.7935 6.23666 86.8863 6.18097C86.9792 6.14385 87.0534 6.06961 87.1091 5.9768C87.1648 5.88399 87.1833 5.79118 87.1833 5.69838C87.1833 5.60557 87.1648 5.51276 87.1091 5.43851C87.072 5.38283 87.0348 5.32715 86.9792 5.29002C87.0163 5.2529 87.0534 5.19722 87.072 5.16009C87.0905 5.10441 87.1091 5.04872 87.1091 4.97448C87.1091 4.88167 87.0905 4.78886 87.0348 4.71462C86.9792 4.64037 86.9235 4.56612 86.8307 4.529C86.6636 4.43619 86.4223 4.43619 86.2553 4.529C86.1625 4.56612 86.1068 4.64037 86.0511 4.71462C85.9954 4.78886 85.9768 4.88167 85.9768 4.97448C85.9768 5.04872 85.9954 5.10441 86.014 5.17865C86.0325 5.21578 86.0511 5.2529 86.0882 5.29002C86.0325 5.34571 85.9954 5.40139 85.9583 5.45708C85.9212 5.51276 85.9026 5.60557 85.9026 5.69838ZM86.6265 5.06729C86.5894 5.10441 86.5151 5.10441 86.4594 5.06729C86.4409 5.04872 86.4223 5.0116 86.4223 4.97448C86.4223 4.93735 86.4409 4.91879 86.4594 4.90023C86.478 4.88167 86.4966 4.86311 86.5337 4.86311C86.5708 4.86311 86.6079 4.88167 86.6265 4.90023C86.645 4.91879 86.6636 4.93735 86.6636 4.97448C86.6636 5.0116 86.645 5.04872 86.6265 5.06729ZM86.5522 5.51276C86.6079 5.51276 86.6636 5.53132 86.7007 5.56845C86.7379 5.60557 86.7564 5.64269 86.7564 5.67981C86.7564 5.7355 86.7379 5.77262 86.7007 5.79118C86.6265 5.84687 86.478 5.84687 86.4037 5.79118C86.3666 5.75406 86.3481 5.71694 86.3481 5.67981C86.3481 5.64269 86.3666 5.60557 86.4037 5.56845C86.4409 5.53132 86.4966 5.51276 86.5522 5.51276ZM86.5337 6.64501L86.0696 7.49884C86.014 7.61021 85.9768 7.68445 85.9583 7.74014C85.9397 7.79582 85.9397 7.85151 85.9397 7.90719C85.9397 8.05568 85.9954 8.18561 86.1068 8.29698C86.2181 8.40835 86.3666 8.46404 86.5337 8.46404C86.7007 8.46404 86.8307 8.40835 86.942 8.29698C87.0534 8.18561 87.1091 8.05568 87.1091 7.90719C87.1091 7.74014 87.0534 7.61021 86.942 7.49884C86.8492 7.42459 86.7564 7.36891 86.645 7.35035L86.9235 6.83063L86.5337 6.64501ZM86.6822 7.90719C86.6822 7.94431 86.6636 7.98144 86.645 8.01856C86.5894 8.07425 86.4966 8.07425 86.4409 8.01856C86.4037 7.98144 86.4037 7.96288 86.4037 7.90719C86.4037 7.87007 86.4223 7.83295 86.4409 7.79582C86.4594 7.77726 86.4966 7.7587 86.5337 7.7587C86.5708 7.7587 86.6079 7.77726 86.645 7.79582C86.6636 7.83295 86.6822 7.85151 86.6822 7.90719ZM87.9443 14.051C87.9815 13.9954 88 13.9397 88 13.884C88 13.8469 87.9815 13.8097 87.9629 13.7726C87.9072 13.7169 87.7959 13.7169 87.7216 13.7912C87.6845 13.8283 87.6659 13.884 87.6659 13.9397V13.9954H87.2205V13.9211C87.2205 13.7355 87.2947 13.587 87.4061 13.4756C87.5174 13.3643 87.6659 13.3086 87.8515 13.3086C87.9629 13.3086 88.0557 13.3271 88.1485 13.3828C88.2413 13.42 88.3156 13.4942 88.3527 13.587C88.4084 13.6798 88.4269 13.7541 88.4269 13.8469C88.4269 13.9582 88.3898 14.0696 88.3341 14.181C88.2785 14.2923 88.1671 14.4223 88.0186 14.5893L87.9443 14.6636H88.4455V15.0719H87.1648V14.8492L87.7031 14.3295C87.833 14.1995 87.9072 14.1067 87.9443 14.051ZM87.833 4.43619L87.3689 5.29002C87.3133 5.40139 87.2761 5.47564 87.2576 5.53132C87.239 5.58701 87.239 5.64269 87.239 5.69838C87.239 5.84687 87.2947 5.9768 87.4061 6.08817C87.5174 6.19954 87.6659 6.25522 87.833 6.25522C88 6.25522 88.13 6.19954 88.2413 6.08817C88.3527 5.9768 88.4084 5.84687 88.4084 5.69838C88.4084 5.53132 88.3527 5.40139 88.2413 5.29002C88.1485 5.21578 88.0557 5.16009 87.9443 5.14153L88.2228 4.62181L87.833 4.43619ZM87.9815 5.69838C87.9815 5.7355 87.9629 5.77262 87.9443 5.80974C87.8887 5.86543 87.7959 5.86543 87.7402 5.80974C87.7031 5.77262 87.7031 5.75406 87.7031 5.69838C87.7031 5.66125 87.7216 5.62413 87.7402 5.58701C87.7587 5.56845 87.7959 5.54988 87.833 5.54988C87.8701 5.54988 87.9072 5.56845 87.9443 5.58701C87.9629 5.60557 87.9815 5.64269 87.9815 5.69838ZM86.014 12.7517L86.6265 11.5638H85.9768V11.1369H87.2019V11.3968L86.4223 12.9188L86.014 12.7517ZM87.239 9.7819C87.239 9.61485 87.2761 9.46636 87.3689 9.31787C87.4432 9.18793 87.5731 9.07657 87.7216 9.00232C88 8.85383 88.3341 8.83527 88.6311 8.9652C88.7611 9.02088 88.891 9.11369 88.9838 9.22506L89.0209 9.28074L88.7054 9.57773L88.6497 9.52204C88.5198 9.37355 88.3527 9.31787 88.1857 9.31787C88.0372 9.31787 87.9258 9.35499 87.833 9.4478C87.7402 9.5406 87.6845 9.65197 87.6845 9.7819C87.6845 9.87471 87.7031 9.96752 87.7402 10.0418C87.7773 10.116 87.833 10.1717 87.9258 10.2088C88.0743 10.2831 88.2599 10.2831 88.4084 10.2274C88.4826 10.1903 88.5569 10.1346 88.6311 10.0603L88.6868 10.0232L89.0024 10.3387L88.9467 10.3759C88.8167 10.5058 88.6868 10.58 88.5754 10.6357C88.4641 10.6914 88.3156 10.71 88.1671 10.71C87.8887 10.71 87.6659 10.6172 87.4803 10.4501C87.3318 10.2645 87.239 10.0418 87.239 9.7819ZM89.188 15.0719H89.6334V14.7378H89.7819V14.3295H89.6334V13.3086H89.2065L88.4641 14.3666L88.4455 14.3851V14.7564H89.1694V15.0719H89.188ZM89.0209 14.348L89.2065 14.0882V14.348H89.0209ZM86.1068 10.5244C86.2181 10.6357 86.3666 10.6914 86.5337 10.6914C86.7007 10.6914 86.8307 10.6357 86.942 10.5244C87.0534 10.413 87.1091 10.2831 87.1091 10.1346C87.1091 9.96752 87.0534 9.83759 86.942 9.72622C86.8492 9.65197 86.7564 9.59629 86.645 9.57773L86.9235 9.058L86.5337 8.87239L86.0696 9.72622C86.014 9.83759 85.9768 9.91183 85.9583 9.96752C85.9397 10.0232 85.9397 10.0789 85.9397 10.1346C85.9397 10.2831 85.9954 10.413 86.1068 10.5244ZM86.3852 10.116C86.3852 10.0789 86.4037 10.0418 86.4223 10.0046C86.4409 9.98608 86.478 9.96752 86.5151 9.96752C86.5522 9.96752 86.5894 9.98608 86.6265 10.0046C86.6636 10.0418 86.6636 10.0603 86.6636 10.116C86.6636 10.1531 86.645 10.1903 86.6265 10.2274C86.5708 10.2831 86.478 10.2831 86.4223 10.2274C86.4037 10.2088 86.3852 10.1717 86.3852 10.116ZM88.7982 17.2622C88.891 17.2993 89.0024 17.3179 89.1508 17.3179C89.2808 17.3179 89.3921 17.2993 89.485 17.2436C89.5778 17.2065 89.652 17.1322 89.7077 17.0394C89.7634 16.9466 89.7819 16.8538 89.7819 16.761C89.7819 16.6682 89.7634 16.5754 89.7077 16.5012C89.6706 16.4455 89.6334 16.3898 89.5778 16.3527C89.6149 16.3155 89.652 16.2599 89.6706 16.2227C89.6891 16.1671 89.7077 16.1114 89.7077 16.0371C89.7077 15.9443 89.6891 15.8515 89.6334 15.7773C89.5778 15.703 89.5221 15.6288 89.4293 15.5916C89.2622 15.4988 89.0209 15.4988 88.8539 15.5916C88.7611 15.6288 88.7054 15.703 88.6497 15.7773C88.594 15.8515 88.5754 15.9443 88.5754 16.0371C88.5754 16.1114 88.594 16.1671 88.6126 16.2413C88.6311 16.2784 88.6497 16.3155 88.6868 16.3527C88.6311 16.4084 88.594 16.464 88.5569 16.5197C88.5198 16.594 88.5012 16.6868 88.5012 16.7796C88.5012 16.891 88.5198 16.9838 88.5754 17.0766C88.6311 17.1694 88.7054 17.2251 88.7982 17.2622ZM89.2251 16.1485C89.188 16.1856 89.1137 16.1856 89.058 16.1485C89.0395 16.1299 89.0209 16.0928 89.0209 16.0742C89.0209 16.0371 89.0395 16.0186 89.058 16C89.0766 15.9814 89.0952 15.9629 89.1323 15.9629C89.1694 15.9629 89.2065 15.9629 89.2251 16C89.2437 16.0186 89.2622 16.0371 89.2622 16.0742C89.2437 16.0928 89.2437 16.1299 89.2251 16.1485ZM89.1323 16.594C89.188 16.594 89.2437 16.6125 89.2808 16.6497C89.3179 16.6868 89.3365 16.7239 89.3365 16.761C89.3365 16.8167 89.3179 16.8353 89.2808 16.8724C89.2065 16.9281 89.058 16.9281 88.9838 16.8724C88.9467 16.8353 88.9281 16.7981 88.9281 16.761C88.9281 16.7239 88.9467 16.6868 88.9838 16.6497C89.0395 16.6125 89.0766 16.594 89.1323 16.594ZM87.4989 19.4524C87.5917 19.5081 87.7216 19.5452 87.8515 19.5452C88 19.5452 88.1114 19.5081 88.2042 19.4524C88.297 19.3968 88.3713 19.2854 88.4269 19.1555C88.4826 19.0255 88.5012 18.8585 88.5012 18.6357C88.5012 18.413 88.4826 18.2459 88.4269 18.116C88.3713 17.9861 88.297 17.8933 88.2042 17.819C88.1114 17.7633 87.9815 17.7262 87.8515 17.7262C87.6474 17.7262 87.4803 17.8005 87.3504 17.9675C87.239 18.116 87.2019 18.3387 87.2019 18.6357C87.2019 18.8585 87.2205 19.0255 87.2761 19.1369C87.3133 19.3039 87.3875 19.3968 87.4989 19.4524ZM87.6474 18.6729C87.6474 18.5244 87.6659 18.413 87.6845 18.3387C87.703 18.2645 87.7216 18.2274 87.7587 18.2088C87.7959 18.1903 87.8144 18.1717 87.8515 18.1717C87.8887 18.1717 87.9444 18.1903 87.9815 18.2645C88.0186 18.3202 88.0372 18.413 88.0372 18.6729C88.0372 18.8585 88.0186 19.007 87.9629 19.0812C87.9258 19.1555 87.8701 19.1555 87.833 19.1555C87.7959 19.1555 87.7402 19.1555 87.7031 19.0626C87.6845 19.007 87.6474 18.9142 87.6474 18.6729ZM84.6775 8.09281C84.7332 8.22274 84.8075 8.31554 84.9003 8.37123C84.9931 8.42691 85.123 8.46404 85.2529 8.46404C85.4014 8.46404 85.5128 8.42691 85.6056 8.37123C85.6984 8.31554 85.7727 8.20418 85.8283 8.07425C85.884 7.94431 85.9026 7.77726 85.9026 7.55452C85.9026 7.33179 85.884 7.16473 85.8283 7.0348C85.7727 6.90487 85.6984 6.81206 85.6056 6.73782C85.5128 6.68213 85.3829 6.64501 85.2529 6.64501C85.0488 6.64501 84.8817 6.71926 84.7518 6.88631C84.6404 7.0348 84.6033 7.25754 84.6033 7.55452C84.6033 7.81438 84.6218 7.98144 84.6775 8.09281ZM85.0488 7.59165C85.0488 7.44316 85.0673 7.33179 85.0859 7.25754C85.1044 7.18329 85.123 7.14617 85.1601 7.12761C85.1787 7.10905 85.2158 7.09049 85.2529 7.09049C85.2901 7.09049 85.3457 7.10905 85.3829 7.18329C85.42 7.23898 85.4385 7.33179 85.4385 7.59165C85.4385 7.77726 85.42 7.92575 85.3643 8C85.3272 8.07425 85.2715 8.07425 85.2344 8.07425C85.1973 8.07425 85.1416 8.07425 85.1044 7.98144C85.0859 7.92575 85.0488 7.83295 85.0488 7.59165ZM84.6775 12.529C84.7332 12.6589 84.8075 12.7517 84.9003 12.8074C84.9931 12.8631 85.123 12.9002 85.2529 12.9002C85.4014 12.9002 85.5128 12.8631 85.6056 12.8074C85.6984 12.7517 85.7727 12.6404 85.8283 12.5104C85.884 12.3805 85.9026 12.2135 85.9026 11.9907C85.9026 11.768 85.884 11.6009 85.8283 11.471C85.7727 11.3411 85.6984 11.2483 85.6056 11.174C85.5128 11.1183 85.3829 11.0812 85.2529 11.0812C85.0488 11.0812 84.8817 11.1555 84.7518 11.3225C84.6404 11.471 84.6033 11.6937 84.6033 11.9907C84.6033 12.232 84.6218 12.3991 84.6775 12.529ZM85.0488 12.0278C85.0488 11.8794 85.0673 11.768 85.0859 11.6937C85.1044 11.6195 85.123 11.5824 85.1601 11.5638C85.1787 11.5452 85.2158 11.5267 85.2529 11.5267C85.2901 11.5267 85.3457 11.5452 85.3829 11.6195C85.42 11.6752 85.4385 11.768 85.4385 12.0278C85.4385 12.2135 85.42 12.3619 85.3643 12.4362C85.3272 12.5104 85.2715 12.5104 85.2344 12.5104C85.1973 12.5104 85.1416 12.5104 85.1044 12.4176C85.0859 12.3619 85.0488 12.2506 85.0488 12.0278ZM89.1508 6.27378L89.6149 5.41995C89.6706 5.30858 89.7077 5.23434 89.7263 5.17865C89.7448 5.12297 89.7448 5.06729 89.7448 5.0116C89.7448 4.86311 89.6891 4.73318 89.5778 4.62181C89.4664 4.51044 89.3179 4.45476 89.1508 4.45476C88.9838 4.45476 88.8539 4.51044 88.7425 4.62181C88.6311 4.73318 88.5754 4.86311 88.5754 5.03016C88.5754 5.19722 88.6311 5.32715 88.7425 5.43851C88.8353 5.53132 88.9281 5.56845 89.0395 5.58701L88.7611 6.10673L89.1508 6.27378ZM89.0024 5.0116C89.0024 4.97448 89.0209 4.93735 89.0395 4.90023C89.0766 4.86311 89.0952 4.86311 89.1508 4.86311C89.188 4.86311 89.2251 4.88167 89.2437 4.90023C89.2808 4.93735 89.2808 4.95592 89.2808 5.0116C89.2808 5.04872 89.2622 5.08585 89.2437 5.12297C89.188 5.17865 89.0952 5.17865 89.0395 5.12297C89.0209 5.10441 89.0024 5.06729 89.0024 5.0116ZM87.3133 12.7517L87.9258 11.5638H87.2761V11.1369H88.5012V11.3968L87.7216 12.9188L87.3133 12.7517ZM88.5569 6.7007H89.7819V6.96056L89.0024 8.50116L88.6126 8.31555L89.2251 7.12761H88.5754V6.7007H88.5569ZM87.1648 19.5081H85.884V19.2668L86.4223 18.7471C86.5337 18.6357 86.6265 18.5429 86.6636 18.4687C86.7007 18.413 86.7193 18.3573 86.7193 18.3016C86.7193 18.2645 86.7007 18.2274 86.6822 18.1903C86.6265 18.1346 86.5151 18.1346 86.4409 18.2088C86.4037 18.2459 86.3852 18.3016 86.3852 18.3573V18.413H85.9397V18.3387C85.9397 18.1531 86.014 18.0046 86.1253 17.8933C86.2367 17.7819 86.3852 17.7262 86.5708 17.7262C86.6822 17.7262 86.7935 17.7448 86.8678 17.8005C86.9606 17.8376 87.0348 17.9118 87.072 18.0046C87.1276 18.0974 87.1462 18.1717 87.1462 18.2645C87.1462 18.3759 87.1091 18.4872 87.0534 18.5986C86.9977 18.71 86.8863 18.8399 86.7379 19.007L86.6636 19.0812H87.1648V19.5081ZM87.1833 15.8329L86.4037 17.355L86.014 17.1694L86.6265 15.9814H85.9768V15.5731H87.2019L87.1833 15.8329ZM87.833 15.5174L87.3689 16.3712C87.3133 16.4826 87.2761 16.5568 87.2576 16.6125C87.239 16.6682 87.239 16.7239 87.239 16.7796C87.239 16.9281 87.2947 17.058 87.4061 17.1694C87.5174 17.2807 87.6659 17.3364 87.833 17.3364C88 17.3364 88.13 17.2807 88.2413 17.1694C88.3527 17.058 88.4084 16.9281 88.4084 16.7796C88.4084 16.6125 88.3527 16.4826 88.2413 16.3712C88.1485 16.2784 88.0557 16.2413 87.9443 16.2227L88.2228 15.703L87.833 15.5174ZM87.9815 16.761C87.9815 16.7981 87.9629 16.8353 87.9443 16.8724C87.8887 16.9281 87.7959 16.9281 87.7402 16.8724C87.7031 16.8353 87.7031 16.8167 87.7031 16.761C87.7031 16.7239 87.7216 16.6868 87.7402 16.6497C87.7587 16.6311 87.7959 16.6125 87.833 16.6125C87.8701 16.6125 87.9072 16.6311 87.9443 16.6497C87.9629 16.6868 87.9815 16.7239 87.9815 16.761ZM85.8655 3.99072H84.5847V3.74942L85.123 3.2297C85.2344 3.11833 85.3272 3.02552 85.3643 2.95128C85.4014 2.89559 85.42 2.83991 85.42 2.78422C85.42 2.7471 85.4014 2.70998 85.3829 2.67285C85.3272 2.61717 85.2158 2.61717 85.1416 2.69142C85.1044 2.72854 85.0859 2.78422 85.0859 2.83991V2.89559H84.6404V2.82135C84.6404 2.63573 84.7147 2.48724 84.826 2.37587C84.9374 2.2645 85.0859 2.20882 85.2715 2.20882C85.3829 2.20882 85.4942 2.22738 85.5685 2.28306C85.6613 2.32019 85.7355 2.39443 85.7727 2.48724C85.8283 2.58005 85.8469 2.65429 85.8469 2.7471C85.8469 2.85847 85.8098 2.96984 85.7541 3.08121C85.6984 3.19258 85.587 3.32251 85.4385 3.48956L85.3643 3.56381H85.8655V3.99072ZM86.6265 0.482599H85.9768V0.0556845H87.2019V0.315545L86.4223 1.85615L86.0325 1.67053L86.6265 0.482599ZM85.3272 0.482599H84.6775V0.0556845H85.9026V0.315545L85.123 1.85615L84.7332 1.67053L85.3272 0.482599ZM86.0882 21.6056C85.9768 21.4942 85.9026 21.3643 85.9026 21.1787V21.1044H86.3481V21.1601C86.3666 21.2343 86.3852 21.2715 86.4223 21.3086C86.4966 21.3643 86.6079 21.3643 86.6822 21.3086C86.7193 21.2715 86.7379 21.2343 86.7379 21.1972C86.7379 21.1415 86.7193 21.1044 86.6636 21.0673C86.6079 21.0302 86.5337 21.0116 86.4223 21.0116H86.3481V20.6032H86.4037C86.4966 20.6032 86.5337 20.5847 86.5522 20.5661C86.5708 20.5476 86.5894 20.5476 86.6079 20.5104C86.6265 20.4919 86.6265 20.4733 86.6265 20.4548C86.6265 20.4362 86.6265 20.4176 86.6079 20.3991C86.5894 20.3805 86.5708 20.3805 86.5337 20.3805C86.4966 20.3805 86.478 20.3805 86.4594 20.3991C86.4409 20.4176 86.4223 20.4362 86.4037 20.4733L86.3852 20.5104H85.9583L85.9768 20.4362C85.9954 20.3063 86.0511 20.1949 86.1253 20.1206C86.2367 20.0093 86.3852 19.9536 86.5522 19.9536C86.7007 19.9536 86.8307 20.0093 86.942 20.1021C87.0534 20.1949 87.1091 20.3063 87.1091 20.4362C87.1091 20.5104 87.0905 20.6032 87.0348 20.6589C87.0163 20.6961 86.9792 20.7332 86.942 20.7517C86.9977 20.7889 87.0534 20.826 87.0905 20.8817C87.1648 20.9559 87.1833 21.0673 87.1833 21.1787C87.1833 21.3457 87.1276 21.4756 86.9977 21.587C86.8678 21.6984 86.7193 21.7541 86.5337 21.7541C86.3481 21.7726 86.1996 21.7169 86.0882 21.6056ZM85.2344 21.7726C85.4014 21.7726 85.5314 21.7169 85.6427 21.6056C85.7541 21.4942 85.8098 21.3643 85.8098 21.2158C85.8098 21.0487 85.7541 20.9188 85.6427 20.8074C85.5499 20.7146 85.4571 20.6775 85.3457 20.6589L85.6242 20.1392L85.2344 19.9536L84.7703 20.8074C84.7147 20.9188 84.6775 20.993 84.659 21.0487C84.6404 21.1044 84.6404 21.1601 84.6404 21.2158C84.6404 21.3643 84.6961 21.4942 84.8075 21.6056C84.9188 21.7169 85.0673 21.7726 85.2344 21.7726ZM85.0859 21.1972C85.0859 21.1601 85.1044 21.123 85.123 21.0858C85.1416 21.0673 85.1787 21.0487 85.2158 21.0487C85.2529 21.0487 85.2901 21.0673 85.3272 21.0858C85.3643 21.123 85.3643 21.1415 85.3643 21.1972C85.3643 21.2343 85.3457 21.2715 85.3272 21.3086C85.2715 21.3643 85.1787 21.3643 85.123 21.3086C85.1044 21.2715 85.0859 21.2529 85.0859 21.1972ZM84.6775 22.2181H85.9026V22.478L85.123 24.0186L84.7332 23.8329L85.3457 22.645H84.6961V22.2181H84.6775ZM87.7216 1.81903C87.8887 1.81903 88.0186 1.76334 88.13 1.65197C88.2413 1.5406 88.297 1.41067 88.297 1.26218C88.297 1.09513 88.2413 0.965197 88.13 0.853828C88.0372 0.761021 87.9444 0.723898 87.833 0.705336L88.1114 0.185615L87.7216 0L87.2576 0.853828C87.2019 0.965197 87.1648 1.03944 87.1462 1.09513C87.1276 1.15081 87.1276 1.2065 87.1276 1.26218C87.1276 1.41067 87.1833 1.5406 87.2947 1.65197C87.4061 1.76334 87.5546 1.81903 87.7216 1.81903ZM87.5731 1.26218C87.5731 1.22506 87.5917 1.18793 87.6102 1.15081C87.6288 1.13225 87.6659 1.11369 87.7031 1.11369C87.7402 1.11369 87.7773 1.13225 87.8144 1.15081C87.8515 1.18793 87.8515 1.2065 87.8515 1.26218C87.8515 1.2993 87.833 1.33643 87.8144 1.37355C87.7587 1.42923 87.6659 1.42923 87.6102 1.37355C87.5917 1.33643 87.5731 1.2993 87.5731 1.26218ZM84.8075 19.4153C84.6961 19.3225 84.6218 19.2111 84.5847 19.0626L84.5662 18.9884H85.0302L85.0488 19.0255C85.0673 19.0626 85.0859 19.0998 85.123 19.1183C85.1973 19.1555 85.2901 19.1555 85.3457 19.0998C85.3829 19.0626 85.4014 19.0255 85.4014 18.9513C85.4014 18.8956 85.3829 18.8399 85.3457 18.8213C85.2901 18.7657 85.2344 18.7471 85.1601 18.7842C85.1416 18.8028 85.1044 18.8213 85.0859 18.8399L85.0673 18.8585L84.7147 18.7842L84.9374 17.7819H85.8469V18.1903H85.2901L85.2529 18.3387H85.2715C85.4385 18.3387 85.587 18.3944 85.6984 18.5058C85.8098 18.6172 85.8655 18.7657 85.8655 18.9327C85.8655 19.0998 85.8098 19.2483 85.6799 19.3782C85.5499 19.4896 85.4014 19.5638 85.2344 19.5638C85.0673 19.5452 84.9188 19.5081 84.8075 19.4153ZM87.1276 2.61717C87.072 2.48724 86.9977 2.39443 86.9049 2.32019C86.8121 2.2645 86.6822 2.22738 86.5522 2.22738C86.3481 2.22738 86.181 2.30162 86.0511 2.46868C85.9397 2.61717 85.9026 2.83991 85.9026 3.13689C85.9026 3.35963 85.9212 3.52668 85.9768 3.63805C86.0325 3.76798 86.1068 3.86079 86.1996 3.91647C86.2924 3.97216 86.4223 4.00928 86.5522 4.00928C86.7007 4.00928 86.8121 3.97216 86.9049 3.91647C86.9977 3.86079 87.072 3.74942 87.1276 3.61949C87.1462 3.5638 87.1648 3.50812 87.1833 3.43387V3.63805H87.9072V3.97216H88.3527V3.63805H88.5012V3.2297H88.3527V2.20882H87.9258L87.2019 3.24826C87.2019 3.21114 87.2019 3.15545 87.2019 3.11833C87.2019 2.91415 87.1648 2.7471 87.1276 2.61717ZM86.7379 3.13689C86.7379 3.32251 86.7193 3.471 86.6636 3.54524C86.6265 3.61949 86.5708 3.61949 86.5337 3.61949C86.4966 3.61949 86.4409 3.61949 86.4037 3.52668C86.3666 3.48956 86.3295 3.37819 86.3295 3.13689C86.3295 2.9884 86.3481 2.87703 86.3666 2.80278C86.3852 2.72854 86.4037 2.69142 86.4409 2.67285C86.478 2.65429 86.4966 2.63573 86.5337 2.63573C86.5708 2.63573 86.6265 2.65429 86.6636 2.72854C86.7007 2.78422 86.7379 2.89559 86.7379 3.13689ZM87.7216 3.26682L87.9072 3.00696V3.26682H87.7216ZM92.2877 3.56381L92.2692 3.48956H92.7332L92.7518 3.52668C92.7703 3.5638 92.7889 3.60093 92.826 3.61949C92.9003 3.65661 92.9931 3.65661 93.0488 3.60093C93.0859 3.5638 93.1044 3.52668 93.1044 3.45244C93.1044 3.39675 93.0859 3.34107 93.0488 3.32251C92.9931 3.26682 92.9374 3.24826 92.8631 3.28538C92.8446 3.30394 92.8075 3.32251 92.7889 3.34107L92.7703 3.35963L92.4177 3.28538L92.6404 2.28306H93.5499V2.69142H92.9931L92.9559 2.83991H92.9745C93.1416 2.83991 93.2901 2.89559 93.4014 3.00696C93.5128 3.11833 93.5685 3.26682 93.5685 3.43387C93.5685 3.60093 93.5128 3.74942 93.3829 3.87935C93.2529 3.99072 93.1044 4.06496 92.9374 4.06496C92.7889 4.06496 92.6404 4.02784 92.529 3.93503C92.3991 3.82367 92.3249 3.7123 92.2877 3.56381ZM93.1044 0.482599H92.4548V0.0556845H93.6798V0.315545L92.9003 1.85615L92.5105 1.67053L93.1044 0.482599ZM91.6195 1.15081L91.3411 1.67053L91.7309 1.85615L92.1949 1.00232C92.2506 0.890951 92.2877 0.816705 92.3063 0.761021C92.3249 0.705336 92.3249 0.649652 92.3249 0.593967C92.3249 0.445476 92.2692 0.315545 92.1578 0.204176C92.0464 0.0928074 91.8979 0.037123 91.7309 0.037123C91.5638 0.037123 91.4339 0.0928074 91.3225 0.204176C91.2112 0.315545 91.1555 0.445476 91.1555 0.612529C91.1555 0.779582 91.2112 0.909513 91.3225 1.02088C91.4153 1.07657 91.5082 1.13225 91.6195 1.15081ZM91.601 0.593967C91.601 0.556845 91.6195 0.519722 91.6381 0.482599C91.6752 0.445476 91.6938 0.445476 91.7495 0.445476C91.7866 0.445476 91.8237 0.464037 91.8423 0.482599C91.8794 0.519722 91.8794 0.556845 91.8794 0.593967C91.8794 0.63109 91.8608 0.668213 91.8423 0.705336C91.7866 0.761021 91.6938 0.761021 91.6381 0.705336C91.6195 0.668213 91.601 0.63109 91.601 0.593967ZM93.5314 1.09513V1.46636H94.2553V1.80046H94.7007V1.46636H94.8492V1.03944H94.7007V0.0185615H94.2924L93.5314 1.09513ZM94.0882 1.03944L94.2738 0.779582V1.03944H94.0882ZM90.5244 1.81903C90.6915 1.81903 90.8214 1.76334 90.9327 1.65197C91.0441 1.5406 91.0998 1.41067 91.0998 1.26218C91.0998 1.09513 91.0441 0.965197 90.9327 0.853828C90.8399 0.761021 90.7471 0.723898 90.6358 0.705336L90.9142 0.185615L90.5244 0L90.0604 0.853828C90.0047 0.965197 89.9676 1.03944 89.949 1.09513C89.9304 1.15081 89.9304 1.2065 89.9304 1.26218C89.9304 1.41067 89.9861 1.5406 90.0975 1.65197C90.2088 1.76334 90.3573 1.81903 90.5244 1.81903ZM90.3759 1.26218C90.3759 1.22506 90.3945 1.18793 90.413 1.15081C90.4316 1.13225 90.4687 1.11369 90.5058 1.11369C90.543 1.11369 90.5801 1.13225 90.6172 1.15081C90.6543 1.18793 90.6543 1.2065 90.6543 1.26218C90.6543 1.2993 90.6358 1.33643 90.6172 1.37355C90.5615 1.42923 90.4687 1.42923 90.413 1.37355C90.3945 1.33643 90.3759 1.2993 90.3759 1.26218ZM88.7982 1.76334C88.891 1.80046 89.0024 1.81903 89.1508 1.81903C89.2808 1.81903 89.3921 1.80046 89.485 1.74478C89.5778 1.70766 89.652 1.63341 89.7077 1.5406C89.7634 1.4478 89.7819 1.35499 89.7819 1.26218C89.7819 1.16937 89.7634 1.07657 89.7077 1.00232C89.6706 0.946636 89.6334 0.890951 89.5778 0.853828C89.6149 0.816705 89.652 0.761021 89.6706 0.723898C89.6891 0.668213 89.7077 0.612529 89.7077 0.538283C89.7077 0.445476 89.6891 0.352668 89.6334 0.278422C89.5778 0.204176 89.5221 0.12993 89.4293 0.0928074C89.2622 0 89.0209 0 88.8539 0.0928074C88.7611 0.12993 88.7054 0.204176 88.6497 0.278422C88.594 0.352668 88.5754 0.445476 88.5754 0.538283C88.5754 0.612529 88.594 0.668213 88.6126 0.742459C88.6311 0.779582 88.6497 0.816705 88.6868 0.853828C88.6311 0.909513 88.594 0.965197 88.5569 1.02088C88.5198 1.09513 88.5012 1.18793 88.5012 1.28074C88.5012 1.39211 88.5198 1.48492 88.5754 1.57773C88.6311 1.65197 88.7054 1.72622 88.7982 1.76334ZM89.2251 0.63109C89.188 0.668213 89.1137 0.668213 89.058 0.63109C89.0395 0.612529 89.0209 0.575406 89.0209 0.556845C89.0209 0.519722 89.0395 0.50116 89.058 0.482599C89.0766 0.464037 89.0952 0.445476 89.1323 0.445476C89.1694 0.445476 89.2065 0.464037 89.2251 0.482599C89.2437 0.50116 89.2622 0.519722 89.2622 0.556845C89.2437 0.593967 89.2437 0.612529 89.2251 0.63109ZM89.1323 1.07657C89.188 1.07657 89.2437 1.09513 89.2808 1.13225C89.3179 1.16937 89.3365 1.2065 89.3365 1.24362C89.3365 1.2993 89.3179 1.31787 89.2808 1.35499C89.2065 1.41067 89.058 1.41067 88.9838 1.35499C88.9467 1.31787 88.9281 1.28074 88.9281 1.24362C88.9281 1.2065 88.9467 1.16937 88.9838 1.13225C89.0395 1.09513 89.0766 1.07657 89.1323 1.07657ZM90.9327 2.24594H90.5058L89.7634 3.30394L89.7448 3.32251V3.69374H90.4687V4.02784H90.9142V3.69374H91.0627V3.28538H90.9142V2.24594H90.9327ZM90.3017 3.26682L90.4873 3.00696V3.26682H90.3017ZM91.6195 3.35963L91.3411 3.87935L91.7309 4.06496L92.1949 3.21114C92.2506 3.09977 92.2877 3.02552 92.3063 2.96984C92.3249 2.91415 92.3249 2.85847 92.3249 2.80278C92.3249 2.65429 92.2692 2.52436 92.1578 2.41299C92.0464 2.30162 91.8979 2.24594 91.7309 2.24594C91.5638 2.24594 91.4339 2.30162 91.3225 2.41299C91.2112 2.52436 91.1555 2.65429 91.1555 2.82135C91.1555 2.9884 91.2112 3.11833 91.3225 3.2297C91.4153 3.28538 91.5082 3.34107 91.6195 3.35963ZM91.601 2.80278C91.601 2.76566 91.6195 2.72854 91.6381 2.69142C91.6752 2.65429 91.6938 2.65429 91.7495 2.65429C91.7866 2.65429 91.8237 2.67285 91.8423 2.69142C91.8794 2.72854 91.8794 2.76566 91.8794 2.80278C91.8794 2.83991 91.8608 2.87703 91.8423 2.91415C91.7866 2.96984 91.6938 2.96984 91.6381 2.91415C91.6195 2.87703 91.601 2.83991 91.601 2.80278ZM100.362 20.065C100.269 20.0093 100.139 19.9722 100.009 19.9722C99.8051 19.9722 99.6381 20.0464 99.5081 20.2135C99.3968 20.3619 99.3597 20.5847 99.3597 20.8817C99.3597 21.1044 99.3782 21.2715 99.4339 21.3828C99.4896 21.5128 99.5638 21.6056 99.6566 21.6613C99.7495 21.7169 99.8794 21.7541 100.009 21.7541C100.158 21.7541 100.269 21.7169 100.362 21.6613C100.455 21.6056 100.529 21.4942 100.585 21.3643C100.64 21.2343 100.659 21.0673 100.659 20.8445C100.659 20.6218 100.64 20.4548 100.585 20.3248C100.548 20.2135 100.473 20.1206 100.362 20.065ZM100.213 20.8631C100.213 21.0487 100.195 21.1972 100.139 21.2715C100.102 21.3457 100.046 21.3457 100.009 21.3457C99.9722 21.3457 99.9165 21.3457 99.8794 21.2529C99.8423 21.2158 99.8237 21.1044 99.8237 20.8631C99.8237 20.7146 99.8423 20.6032 99.8608 20.529C99.8794 20.4548 99.8979 20.4176 99.9351 20.3991C99.9722 20.3805 99.9908 20.3619 100.028 20.3619C100.065 20.3619 100.121 20.3805 100.158 20.4548C100.195 20.5104 100.213 20.6218 100.213 20.8631ZM98.3388 23.536H98.8399V23.9443H97.5592V23.703L98.0975 23.1833C98.2088 23.0719 98.3017 22.9791 98.3388 22.9049C98.3759 22.8492 98.3945 22.7935 98.3945 22.7378C98.3945 22.7007 98.3759 22.6636 98.3573 22.6264C98.3017 22.5708 98.1903 22.5708 98.116 22.645C98.0789 22.6821 98.0604 22.7378 98.0604 22.7935V22.8492H97.6149V22.7749C97.6149 22.5893 97.6891 22.4408 97.8005 22.3295C97.9119 22.2181 98.0604 22.1624 98.246 22.1624C98.3573 22.1624 98.4687 22.181 98.543 22.2367C98.6358 22.2738 98.71 22.348 98.7471 22.4408C98.8028 22.5336 98.8214 22.6079 98.8214 22.7007C98.8214 22.8121 98.7843 22.9234 98.7286 23.0348C98.6729 23.1462 98.5615 23.2761 98.413 23.4432L98.3388 23.536ZM98.7843 21.3086H99.2854V21.7169H98.0047V21.4756L98.543 20.9559C98.6543 20.8445 98.7471 20.7517 98.7843 20.6775C98.8214 20.6218 98.8399 20.5661 98.8399 20.5104C98.8399 20.4733 98.8214 20.4362 98.8028 20.3991C98.7471 20.3434 98.6358 20.3434 98.5615 20.4176C98.5244 20.4548 98.5058 20.5104 98.5058 20.5661V20.6218H98.0604V20.5476C98.0604 20.3619 98.1346 20.2135 98.246 20.1021C98.3573 19.9907 98.5058 19.935 98.6914 19.935C98.8028 19.935 98.8956 19.9536 98.9884 20.0093C99.0812 20.0464 99.1555 20.1206 99.1926 20.2135C99.2483 20.3063 99.2669 20.3805 99.2669 20.4733C99.2669 20.5847 99.2297 20.6961 99.174 20.8074C99.1184 20.9188 99.007 21.0487 98.8585 21.2158L98.7843 21.3086ZM95.6845 22.8492L95.9629 22.3295L95.5731 22.1439L95.1091 22.9977C95.0534 23.109 95.0163 23.1833 94.9977 23.239C94.9791 23.2947 94.9792 23.3503 94.9792 23.406C94.9792 23.5545 95.0348 23.6845 95.1462 23.7958C95.2576 23.9072 95.4061 23.9629 95.5731 23.9629C95.7402 23.9629 95.8701 23.9072 95.9815 23.7958C96.0928 23.6845 96.1485 23.5545 96.1485 23.406C96.1485 23.239 96.0928 23.109 95.9815 22.9977C95.9072 22.9234 95.7959 22.8863 95.6845 22.8492ZM95.7216 23.4246C95.7216 23.4617 95.703 23.4988 95.6845 23.536C95.6288 23.5916 95.536 23.5916 95.4803 23.536C95.4432 23.4988 95.4432 23.4617 95.4432 23.4246C95.4432 23.3875 95.4618 23.3503 95.4803 23.3132C95.4989 23.2947 95.536 23.2761 95.5731 23.2761C95.6102 23.2761 95.6474 23.2947 95.6845 23.3132C95.703 23.3318 95.7216 23.3689 95.7216 23.4246ZM85.9768 22.2181H87.2019V22.478L86.4223 24.0186L86.0325 23.8329L86.645 22.645H85.9954V22.2181H85.9768ZM95.4432 2.91415H94.9977V2.83991C94.9977 2.65429 95.072 2.5058 95.1833 2.39443C95.2947 2.28306 95.4432 2.22738 95.6288 2.22738C95.7402 2.22738 95.833 2.24594 95.9258 2.30162C96.0186 2.33875 96.0928 2.41299 96.13 2.5058C96.1857 2.59861 96.2042 2.67285 96.2042 2.76566C96.2042 2.87703 96.1671 2.9884 96.1114 3.09977C96.0557 3.21114 95.9443 3.34107 95.7959 3.50812L95.7216 3.58237H96.2228V3.99072H94.942V3.74942L95.4803 3.2297C95.5917 3.11833 95.6845 3.02552 95.7216 2.95128C95.7587 2.89559 95.7773 2.83991 95.7773 2.78422C95.7773 2.7471 95.7587 2.70998 95.7402 2.67285C95.6845 2.61717 95.5731 2.61717 95.4989 2.69142C95.4617 2.72854 95.4432 2.78422 95.4432 2.83991V2.91415ZM102.515 16.3712C102.422 16.2784 102.329 16.2413 102.218 16.2227L102.497 15.703L102.107 15.5174L101.643 16.3712C101.587 16.4826 101.55 16.5568 101.531 16.6125C101.513 16.6682 101.513 16.7239 101.513 16.7796C101.513 16.9281 101.568 17.058 101.68 17.1694C101.791 17.2807 101.94 17.3364 102.107 17.3364C102.274 17.3364 102.404 17.2807 102.515 17.1694C102.626 17.058 102.682 16.9281 102.682 16.7796C102.682 16.6125 102.626 16.4826 102.515 16.3712ZM102.237 16.761C102.237 16.7981 102.218 16.8353 102.2 16.8724C102.144 16.9281 102.051 16.9281 101.995 16.8724C101.958 16.8353 101.958 16.8167 101.958 16.761C101.958 16.7239 101.977 16.6868 101.995 16.6497C102.014 16.6311 102.051 16.6125 102.088 16.6125C102.125 16.6125 102.162 16.6311 102.2 16.6497C102.218 16.6868 102.237 16.7239 102.237 16.761ZM100.269 19.0998H100.77V19.5081H99.4896V19.2668L100.028 18.7471C100.139 18.6357 100.232 18.5429 100.269 18.4687C100.306 18.413 100.325 18.3573 100.325 18.3016C100.325 18.2645 100.306 18.2274 100.288 18.1903C100.232 18.1346 100.121 18.1346 100.046 18.2088C100.009 18.2459 99.9908 18.3016 99.9908 18.3573V18.413H99.5453V18.3387C99.5453 18.1531 99.6195 18.0046 99.7309 17.8933C99.8423 17.7819 99.9908 17.7262 100.176 17.7262C100.288 17.7262 100.399 17.7448 100.473 17.8005C100.566 17.8376 100.64 17.9118 100.678 18.0046C100.733 18.0974 100.752 18.1717 100.752 18.2645C100.752 18.3759 100.715 18.4872 100.659 18.5986C100.603 18.71 100.492 18.8399 100.343 19.007L100.269 19.0998ZM101.791 17.8376C101.698 17.7819 101.568 17.7448 101.439 17.7448C101.234 17.7448 101.067 17.819 100.937 17.9861C100.826 18.1346 100.789 18.3573 100.789 18.6543C100.789 18.877 100.807 19.0441 100.863 19.1555C100.919 19.2854 100.993 19.3782 101.086 19.4339C101.179 19.4896 101.309 19.5267 101.439 19.5267C101.587 19.5267 101.698 19.4896 101.791 19.4339C101.884 19.3782 101.958 19.2668 102.014 19.1369C102.07 19.007 102.088 18.8399 102.088 18.6172C102.088 18.3944 102.07 18.2274 102.014 18.0974C101.977 18.0046 101.903 17.9118 101.791 17.8376ZM101.661 18.6543C101.661 18.8399 101.643 18.9884 101.587 19.0626C101.55 19.1369 101.494 19.1369 101.457 19.1369C101.42 19.1369 101.364 19.1369 101.327 19.0441C101.29 19.007 101.253 18.8956 101.253 18.6543C101.253 18.5058 101.271 18.3944 101.29 18.3202C101.309 18.2459 101.327 18.2088 101.364 18.1903C101.401 18.1717 101.42 18.1531 101.457 18.1531C101.494 18.1531 101.55 18.1717 101.587 18.2459C101.624 18.3016 101.661 18.413 101.661 18.6543ZM97.355 22.942C97.4664 23.0534 97.5221 23.2019 97.5221 23.3689C97.5221 23.536 97.4664 23.6845 97.3365 23.8144C97.2065 23.9258 97.058 24 96.891 24C96.7425 24 96.594 23.9629 96.4826 23.8701C96.3713 23.7773 96.297 23.6659 96.2599 23.5174L96.2413 23.4432H96.7054L96.7239 23.4803C96.7425 23.5174 96.7611 23.5545 96.7982 23.5731C96.8724 23.6102 96.9652 23.6102 97.0209 23.5545C97.058 23.5174 97.0766 23.4803 97.0766 23.406C97.0766 23.3503 97.058 23.2947 97.0209 23.2761C96.9652 23.2204 96.9095 23.2019 96.8353 23.239C96.8167 23.2575 96.7796 23.2761 96.7611 23.2947L96.7425 23.3132L96.3898 23.239L96.6126 22.2367H97.5221V22.645H96.9652L96.9281 22.7935H96.9467C97.0952 22.7749 97.2437 22.8306 97.355 22.942ZM87.9443 20.6404L88.2228 20.1206L87.833 19.935L87.3689 20.7889C87.3133 20.9002 87.2761 20.9745 87.2576 21.0302C87.239 21.0858 87.239 21.1415 87.239 21.1972C87.239 21.3457 87.2947 21.4756 87.4061 21.587C87.5174 21.6984 87.6659 21.7541 87.833 21.7541C88 21.7541 88.13 21.6984 88.2413 21.587C88.3527 21.4756 88.4084 21.3457 88.4084 21.1972C88.4084 21.0302 88.3527 20.9002 88.2413 20.7889C88.1671 20.7146 88.0743 20.6589 87.9443 20.6404ZM87.9815 21.1972C87.9815 21.2343 87.9629 21.2715 87.9443 21.3086C87.8887 21.3643 87.7959 21.3643 87.7402 21.3086C87.7031 21.2715 87.7031 21.2343 87.7031 21.1972C87.7031 21.1601 87.7216 21.123 87.7402 21.0858C87.7587 21.0673 87.7959 21.0487 87.833 21.0487C87.8701 21.0487 87.9072 21.0673 87.9443 21.0858C87.9629 21.123 87.9815 21.1601 87.9815 21.1972ZM89.5778 22.9977C89.6149 22.9606 89.652 22.9049 89.6706 22.8677C89.6891 22.8121 89.7077 22.7564 89.7077 22.6821C89.7077 22.5893 89.6891 22.4965 89.6334 22.4223C89.5778 22.348 89.5221 22.2738 89.4293 22.2367C89.2622 22.1439 89.0209 22.1439 88.8539 22.2367C88.7611 22.2738 88.7054 22.348 88.6497 22.4223C88.594 22.4965 88.5754 22.5893 88.5754 22.6821C88.5754 22.7564 88.594 22.8121 88.6126 22.8863C88.6311 22.9234 88.6497 22.9606 88.6868 22.9977C88.6311 23.0534 88.594 23.109 88.5569 23.1647C88.5198 23.239 88.5012 23.3318 88.5012 23.4246C88.5012 23.536 88.5198 23.6288 88.5754 23.7216C88.6311 23.8144 88.7054 23.8701 88.7982 23.9258C88.891 23.9629 89.0024 23.9814 89.1508 23.9814C89.2808 23.9814 89.3921 23.9629 89.485 23.9072C89.5778 23.8701 89.652 23.7958 89.7077 23.703C89.7634 23.6102 89.7819 23.5174 89.7819 23.4246C89.7819 23.3318 89.7634 23.239 89.7077 23.1647C89.6706 23.0905 89.6334 23.0534 89.5778 22.9977ZM89.2251 22.7935C89.188 22.8306 89.1137 22.8306 89.058 22.7935C89.0395 22.7749 89.0209 22.7378 89.0209 22.7193C89.0209 22.6821 89.0395 22.6636 89.058 22.645C89.0766 22.6264 89.0952 22.6079 89.1323 22.6079C89.1694 22.6079 89.2065 22.6264 89.2251 22.645C89.2437 22.6636 89.2622 22.6821 89.2622 22.7193C89.2437 22.7378 89.2437 22.7749 89.2251 22.7935ZM89.0024 23.2947C89.0395 23.2575 89.0952 23.239 89.1508 23.239C89.2065 23.239 89.2622 23.2575 89.2993 23.2947C89.3365 23.3318 89.355 23.3689 89.355 23.406C89.355 23.4617 89.3365 23.4803 89.2993 23.5174C89.2251 23.5731 89.0766 23.5731 89.0024 23.5174C88.9652 23.4803 88.9467 23.4432 88.9467 23.406C88.9467 23.3503 88.9652 23.3132 89.0024 23.2947ZM87.8515 22.8492L88.13 22.3295L87.7402 22.1439L87.2761 22.9977C87.2205 23.109 87.1833 23.1833 87.1648 23.239C87.1462 23.2947 87.1462 23.3503 87.1462 23.406C87.1462 23.5545 87.2019 23.6845 87.3133 23.7958C87.4246 23.9072 87.5731 23.9629 87.7402 23.9629C87.9072 23.9629 88.0372 23.9072 88.1485 23.7958C88.2599 23.6845 88.3156 23.5545 88.3156 23.406C88.3156 23.239 88.2599 23.109 88.1485 22.9977C88.0743 22.9234 87.9629 22.8863 87.8515 22.8492ZM87.8701 23.4246C87.8701 23.4617 87.8515 23.4988 87.833 23.536C87.7773 23.5916 87.6845 23.5916 87.6288 23.536C87.5917 23.4988 87.5917 23.4617 87.5917 23.4246C87.5917 23.3875 87.6102 23.3503 87.6288 23.3132C87.6474 23.2947 87.6845 23.2761 87.7216 23.2761C87.7587 23.2761 87.7959 23.2947 87.833 23.3132C87.8701 23.3318 87.8701 23.3689 87.8701 23.4246ZM90.6172 22.8492L90.8956 22.3295L90.5058 22.1439L90.0418 22.9977C89.9861 23.109 89.949 23.1833 89.9304 23.239C89.9119 23.2947 89.9119 23.3503 89.9119 23.406C89.9119 23.5545 89.9675 23.6845 90.0789 23.7958C90.1903 23.9072 90.3388 23.9629 90.5058 23.9629C90.6729 23.9629 90.8028 23.9072 90.9142 23.7958C91.0256 23.6845 91.0812 23.5545 91.0812 23.406C91.0812 23.239 91.0256 23.109 90.9142 22.9977C90.8214 22.9234 90.7286 22.8863 90.6172 22.8492ZM90.6358 23.4246C90.6358 23.4617 90.6172 23.4988 90.5986 23.536C90.543 23.5916 90.4502 23.5916 90.3945 23.536C90.3573 23.4988 90.3573 23.4617 90.3573 23.4246C90.3573 23.3875 90.3759 23.3503 90.3945 23.3132C90.413 23.2947 90.4502 23.2761 90.4873 23.2761C90.5244 23.2761 90.5615 23.2947 90.5986 23.3132C90.6172 23.3318 90.6358 23.3689 90.6358 23.4246ZM93.6798 22.478L92.9003 24.0186L92.5105 23.8329L93.123 22.645H92.4734V22.2367H93.6984L93.6798 22.478ZM94.7193 22.181H94.2924L93.5499 23.239L93.5314 23.2575V23.6288H94.2553V23.9629H94.7007V23.6288H94.8492V23.2019H94.7007V22.181H94.7193ZM94.0882 23.2019L94.2738 22.942V23.2019H94.0882ZM91.7495 22.181C91.5824 22.181 91.4525 22.2367 91.3411 22.348C91.2297 22.4594 91.174 22.5893 91.174 22.7564C91.174 22.9234 91.2297 23.0534 91.3411 23.1647C91.4339 23.2575 91.5267 23.2947 91.6381 23.3132L91.3597 23.8329L91.7495 24.0186L92.2135 23.1647C92.2692 23.0534 92.3063 22.9791 92.3249 22.9234C92.3434 22.8677 92.3434 22.8121 92.3434 22.7564C92.3434 22.6079 92.2877 22.478 92.1764 22.3666C92.0464 22.2367 91.9165 22.181 91.7495 22.181ZM91.8794 22.7378C91.8794 22.7749 91.8608 22.8121 91.8423 22.8492C91.7866 22.9049 91.6938 22.9049 91.6381 22.8492C91.601 22.8121 91.601 22.7935 91.601 22.7378C91.601 22.7007 91.6195 22.6636 91.6381 22.6264C91.6752 22.5893 91.6938 22.5893 91.7495 22.5893C91.7866 22.5893 91.8237 22.6079 91.8423 22.6264C91.8794 22.6636 91.8794 22.7007 91.8794 22.7378ZM99.7123 12.3805L99.6381 12.4548H100.139V12.8631H98.8585V12.6218L99.3968 12.1021C99.5082 11.9907 99.601 11.8979 99.6381 11.8237C99.6752 11.768 99.6938 11.7123 99.6938 11.6566C99.6938 11.6195 99.6752 11.5824 99.6566 11.5452C99.601 11.4896 99.4896 11.4896 99.4153 11.5452C99.3782 11.5824 99.3597 11.6381 99.3597 11.6937V11.7494H98.9142V11.6752C98.9142 11.4896 98.9884 11.3411 99.0998 11.2297C99.2112 11.1183 99.3597 11.0626 99.5453 11.0626C99.6566 11.0626 99.7495 11.0812 99.8423 11.1369C99.9351 11.174 100.009 11.2483 100.046 11.3411C100.102 11.4339 100.121 11.5081 100.121 11.6009C100.121 11.7123 100.084 11.8237 100.028 11.935C99.9722 12.0835 99.8608 12.2135 99.7123 12.3805ZM98.2274 9.13225C98.116 9.28074 98.0789 9.50348 98.0789 9.80046C98.0789 10.0232 98.0975 10.1903 98.1532 10.3016C98.2088 10.4316 98.2831 10.5244 98.3759 10.58C98.4687 10.6357 98.5986 10.6729 98.7286 10.6729C98.8771 10.6729 98.9884 10.6357 99.0812 10.58C99.174 10.5244 99.2483 10.413 99.304 10.2831C99.3597 10.1531 99.3782 9.98608 99.3782 9.76334C99.3782 9.5406 99.3597 9.37355 99.304 9.24362C99.2483 9.11369 99.174 9.02088 99.0812 8.94664C98.9884 8.89095 98.8585 8.85383 98.7286 8.85383C98.5058 8.89095 98.3388 8.9652 98.2274 9.13225ZM98.8585 9.39211C98.8956 9.44779 98.9142 9.5406 98.9142 9.80046C98.9142 9.98608 98.8956 10.1346 98.8399 10.2088C98.8028 10.2831 98.7471 10.2831 98.71 10.2831C98.6729 10.2831 98.6172 10.2831 98.5801 10.1903C98.543 10.1531 98.5058 10.0418 98.5058 9.80046C98.5058 9.65197 98.5244 9.5406 98.543 9.46636C98.5615 9.39211 98.5801 9.35499 98.6172 9.33643C98.6543 9.31786 98.6729 9.2993 98.71 9.2993C98.7657 9.2993 98.8028 9.31786 98.8585 9.39211ZM95.6102 1.81903C95.7773 1.81903 95.9072 1.76334 96.0186 1.65197C96.13 1.5406 96.1856 1.41067 96.1856 1.26218C96.1856 1.09513 96.13 0.965197 96.0186 0.853828C95.9258 0.761021 95.833 0.723898 95.7216 0.705336L96 0.185615L95.6102 0L95.1462 0.853828C95.0905 0.965197 95.0534 1.03944 95.0348 1.09513C95.0163 1.15081 95.0163 1.2065 95.0163 1.26218C95.0163 1.41067 95.072 1.5406 95.1833 1.65197C95.2947 1.76334 95.4432 1.81903 95.6102 1.81903ZM95.4617 1.26218C95.4617 1.22506 95.4803 1.18793 95.4989 1.15081C95.5174 1.13225 95.5546 1.11369 95.5917 1.11369C95.6288 1.11369 95.6659 1.13225 95.703 1.15081C95.7402 1.18793 95.7402 1.2065 95.7402 1.26218C95.7402 1.2993 95.7216 1.33643 95.703 1.37355C95.6474 1.42923 95.5546 1.42923 95.4989 1.37355C95.4803 1.33643 95.4617 1.2993 95.4617 1.26218ZM96.9095 11.0812L96.4455 11.935C96.3898 12.0464 96.3527 12.1206 96.3341 12.1763C96.3156 12.232 96.3156 12.2877 96.3156 12.3434C96.3156 12.4919 96.3713 12.6218 96.4826 12.7332C96.594 12.8445 96.7425 12.9002 96.9095 12.9002C97.0766 12.9002 97.2065 12.8445 97.3179 12.7332C97.4293 12.6218 97.485 12.4919 97.485 12.3434C97.485 12.1763 97.4293 12.0464 97.3179 11.935C97.2251 11.8608 97.1323 11.8051 97.0209 11.7865L97.2993 11.2668L96.9095 11.0812ZM97.058 12.3434C97.058 12.3805 97.0395 12.4176 97.0209 12.4548C96.9652 12.5104 96.8724 12.5104 96.8167 12.4548C96.7796 12.4176 96.7796 12.3991 96.7796 12.3434C96.7796 12.3063 96.7982 12.2691 96.8167 12.232C96.8353 12.2135 96.8724 12.1949 96.9095 12.1949C96.9467 12.1949 96.9838 12.2135 97.0209 12.232C97.0395 12.2506 97.058 12.2877 97.058 12.3434ZM99.5081 6.64501L99.0441 7.49884C98.9884 7.61021 98.9513 7.68445 98.9327 7.74014C98.9142 7.79582 98.9142 7.85151 98.9142 7.90719C98.9142 8.05568 98.9699 8.18561 99.0812 8.29698C99.1926 8.40835 99.3411 8.46404 99.5081 8.46404C99.6752 8.46404 99.8051 8.40835 99.9165 8.29698C100.028 8.18561 100.084 8.05568 100.084 7.90719C100.084 7.74014 100.028 7.61021 99.9165 7.49884C99.8237 7.42459 99.7309 7.36891 99.6195 7.35035L99.8979 6.83063L99.5081 6.64501ZM99.6381 7.90719C99.6381 7.94431 99.6195 7.98144 99.601 8.01856C99.5453 8.07425 99.4525 8.07425 99.3968 8.01856C99.3597 7.98144 99.3597 7.96288 99.3597 7.90719C99.3597 7.87007 99.3782 7.83295 99.3968 7.79582C99.4153 7.77726 99.4525 7.7587 99.4896 7.7587C99.5267 7.7587 99.5638 7.77726 99.601 7.79582C99.6195 7.83295 99.6381 7.85151 99.6381 7.90719ZM97.6334 10.1531L97.5592 10.2274H98.0604V10.6357H96.7796V10.3944L97.3179 9.87471C97.4293 9.76334 97.5221 9.67053 97.5592 9.59629C97.5963 9.5406 97.6149 9.48492 97.6149 9.42923C97.6149 9.39211 97.5963 9.35499 97.5778 9.31787C97.5221 9.26218 97.4107 9.26218 97.3365 9.33643C97.2993 9.37355 97.2808 9.42923 97.2808 9.48492V9.5406H96.8353V9.46636C96.8353 9.28074 96.9095 9.13225 97.0209 9.02088C97.1323 8.90951 97.2808 8.85383 97.4664 8.85383C97.5778 8.85383 97.6891 8.87239 97.7634 8.92807C97.8562 8.9652 97.9304 9.03944 97.9675 9.13225C98.0232 9.22506 98.0418 9.2993 98.0418 9.39211C98.0418 9.50348 98.0047 9.61485 97.949 9.72622C97.8933 9.87471 97.7819 10.0046 97.6334 10.1531ZM95.6845 13.884C95.6845 14.051 95.7402 14.181 95.8515 14.2923C95.9444 14.3851 96.0372 14.4223 96.1485 14.4408L95.8701 14.9606L96.2599 15.1462L96.7239 14.2923C96.7796 14.181 96.8167 14.1067 96.8353 14.051C96.8539 13.9954 96.8539 13.9397 96.8539 13.884C96.8539 13.7355 96.7982 13.6056 96.6868 13.4942C96.5754 13.3828 96.4269 13.3271 96.2599 13.3271C96.0928 13.3271 95.9629 13.3828 95.8515 13.4942C95.7402 13.587 95.6845 13.7169 95.6845 13.884ZM96.13 13.884C96.13 13.8469 96.1485 13.8097 96.1671 13.7726C96.2042 13.7355 96.2228 13.7355 96.2785 13.7355C96.3156 13.7355 96.3527 13.7541 96.3713 13.7726C96.4084 13.8097 96.4084 13.8283 96.4084 13.884C96.4084 13.9211 96.3898 13.9582 96.3713 13.9954C96.3156 14.051 96.2228 14.051 96.1671 13.9954C96.1485 13.9582 96.13 13.9211 96.13 13.884ZM97.4107 15.1276C97.2622 15.1276 97.1137 15.0905 97.0023 14.9977C96.891 14.9049 96.8167 14.7935 96.7796 14.645L96.7611 14.5708H97.2251L97.2437 14.6079C97.2622 14.645 97.2808 14.6821 97.3179 14.7007C97.3921 14.7378 97.485 14.7378 97.5406 14.6821C97.5778 14.645 97.5963 14.6079 97.5963 14.5336C97.5963 14.478 97.5778 14.4223 97.5406 14.4037C97.485 14.348 97.4293 14.3295 97.355 14.3666C97.3365 14.3851 97.2993 14.4037 97.2808 14.4223L97.2622 14.4408L96.9095 14.3666L97.1323 13.3643H98.0418V13.7726H97.485L97.4478 13.9211H97.4664C97.6334 13.9211 97.7819 13.9768 97.8933 14.0882C98.0047 14.1995 98.0604 14.348 98.0604 14.5151C98.0604 14.6821 98.0047 14.8306 97.8747 14.9606C97.7262 15.0534 97.5778 15.1276 97.4107 15.1276ZM98.5615 6.77494C98.4687 6.71926 98.3388 6.68213 98.2088 6.68213C98.0047 6.68213 97.8376 6.75638 97.7077 6.92343C97.5963 7.07193 97.5592 7.29466 97.5592 7.59165C97.5592 7.81438 97.5778 7.98144 97.6334 8.09281C97.6891 8.22274 97.7634 8.31554 97.8562 8.37123C97.949 8.42691 98.0789 8.46404 98.2088 8.46404C98.3573 8.46404 98.4687 8.42691 98.5615 8.37123C98.6543 8.31554 98.7286 8.20418 98.7843 8.07425C98.8399 7.94431 98.8585 7.77726 98.8585 7.55452C98.8585 7.33179 98.8399 7.16473 98.7843 7.0348C98.7286 6.92343 98.6543 6.83063 98.5615 6.77494ZM98.413 7.57309C98.413 7.7587 98.3945 7.90719 98.3388 7.98144C98.3017 8.05568 98.246 8.05568 98.2088 8.05568C98.1717 8.05568 98.116 8.05568 98.0789 7.96288C98.0418 7.92575 98.0047 7.81438 98.0047 7.57309C98.0047 7.42459 98.0232 7.31322 98.0418 7.23898C98.0604 7.16473 98.0789 7.12761 98.116 7.10905C98.1532 7.09049 98.1717 7.07193 98.2088 7.07193C98.246 7.07193 98.3017 7.09049 98.3388 7.16473C98.3759 7.22042 98.413 7.33179 98.413 7.57309ZM97.3179 17.1694C97.4293 17.058 97.485 16.9281 97.485 16.7796C97.485 16.6125 97.4293 16.4826 97.3179 16.3712C97.2251 16.2784 97.1323 16.2413 97.0209 16.2227L97.2993 15.703L96.9095 15.5174L96.4455 16.3712C96.3898 16.4826 96.3527 16.5568 96.3341 16.6125C96.3156 16.6682 96.3156 16.7239 96.3156 16.7796C96.3156 16.9281 96.3713 17.058 96.4826 17.1694C96.594 17.2807 96.7425 17.3364 96.9095 17.3364C97.058 17.3364 97.2065 17.2807 97.3179 17.1694ZM96.7611 16.761C96.7611 16.7239 96.7796 16.6868 96.7982 16.6497C96.8167 16.6311 96.8539 16.6125 96.891 16.6125C96.9281 16.6125 96.9652 16.6311 97.0023 16.6497C97.0395 16.6868 97.0395 16.7053 97.0395 16.761C97.0395 16.7981 97.0209 16.8353 97.0023 16.8724C96.9467 16.9281 96.8539 16.9281 96.7982 16.8724C96.7796 16.8538 96.7611 16.8167 96.7611 16.761ZM100.362 14.5893L100.288 14.6636H100.789V15.0719H99.4896V14.8492L100.028 14.3295C100.139 14.2181 100.232 14.1253 100.269 14.051C100.306 13.9954 100.325 13.9397 100.325 13.884C100.325 13.8469 100.306 13.8097 100.288 13.7726C100.232 13.7169 100.121 13.7169 100.046 13.7912C100.009 13.8283 99.9908 13.884 99.9908 13.9397V13.9954H99.5453V13.9211C99.5453 13.7355 99.6195 13.587 99.7309 13.4756C99.8423 13.3643 99.9908 13.3086 100.176 13.3086C100.288 13.3086 100.399 13.3271 100.473 13.3828C100.566 13.42 100.64 13.4942 100.678 13.587C100.733 13.6798 100.752 13.7541 100.752 13.8469C100.752 13.9582 100.715 14.0696 100.659 14.181C100.622 14.3109 100.51 14.4408 100.362 14.5893ZM96.891 4.45476L96.1485 5.51276L96.13 5.53132V5.90255H96.8539V6.23666H97.2993V5.90255H97.4478V5.4942H97.2993V4.45476H96.891ZM96.6868 5.47564L96.8724 5.21578V5.47564H96.6868ZM99.6195 5.79118C99.6566 5.75406 99.6752 5.71694 99.6752 5.64269C99.6752 5.58701 99.6566 5.53132 99.6195 5.51276C99.5638 5.45708 99.5082 5.43851 99.4339 5.47564C99.4153 5.4942 99.3782 5.51276 99.3597 5.53132L99.3411 5.54988L98.9884 5.47564L99.2112 4.47332H100.121V4.88167H99.5638L99.5267 5.03016H99.5453C99.7123 5.03016 99.8608 5.08585 99.9722 5.19722C100.084 5.30858 100.139 5.45708 100.139 5.62413C100.139 5.79118 100.084 5.93967 99.9536 6.06961C99.8237 6.18097 99.6752 6.25522 99.5081 6.25522C99.3597 6.25522 99.2112 6.2181 99.0998 6.12529C98.9884 6.03248 98.9142 5.92111 98.8771 5.77262L98.8585 5.69838H99.3225L99.3411 5.7355C99.3597 5.77262 99.3782 5.80974 99.4153 5.82831C99.4525 5.86543 99.5638 5.84687 99.6195 5.79118ZM99.3225 15.0719V14.7378H99.471V14.3295H99.3225V13.3086H98.8956L98.1532 14.3666L98.1346 14.3851V14.7564H98.8585V15.0905H99.3225V15.0719ZM98.6914 14.348L98.8771 14.0882V14.348H98.6914ZM98.1532 17.355L98.6172 16.5012C98.6729 16.3898 98.71 16.3155 98.7286 16.2599C98.7471 16.2042 98.7471 16.1485 98.7471 16.0928C98.7471 15.9443 98.6914 15.8144 98.5801 15.703C98.4687 15.5916 98.3202 15.536 98.1532 15.536C97.9861 15.536 97.8562 15.5916 97.7448 15.703C97.6334 15.8144 97.5778 15.9443 97.5778 16.1114C97.5778 16.2784 97.6334 16.4084 97.7448 16.5197C97.8376 16.6125 97.9304 16.6497 98.0418 16.6682L97.7634 17.1879L98.1532 17.355ZM98.0047 16.0928C98.0047 16.0557 98.0232 16.0186 98.0418 15.9814C98.0789 15.9443 98.0975 15.9443 98.1532 15.9443C98.1903 15.9443 98.2274 15.9629 98.246 15.9814C98.2831 16.0186 98.2831 16.0557 98.2831 16.0928C98.2831 16.1299 98.2645 16.1671 98.246 16.2042C98.1903 16.2599 98.0975 16.2599 98.0418 16.2042C98.0232 16.1856 98.0047 16.1485 98.0047 16.0928ZM96.1114 9.61485C96.1485 9.55916 96.1671 9.50348 96.1671 9.4478C96.1671 9.41067 96.1485 9.37355 96.13 9.33643C96.0743 9.28074 95.9629 9.28074 95.8887 9.35499C95.8515 9.39211 95.833 9.4478 95.833 9.50348V9.55916H95.3875V9.48492C95.3875 9.2993 95.4618 9.15081 95.5731 9.03944C95.6845 8.92807 95.833 8.87239 96.0186 8.87239C96.13 8.87239 96.2413 8.89095 96.3156 8.94664C96.4084 8.98376 96.4826 9.058 96.5198 9.15081C96.5754 9.24362 96.594 9.31787 96.594 9.41067C96.594 9.52204 96.5569 9.63341 96.5012 9.74478C96.4455 9.85615 96.3341 9.98608 96.1856 10.1531L96.1114 10.2274H96.6126V10.6357H95.3318V10.3944L95.8701 9.87471C96 9.76334 96.0743 9.67053 96.1114 9.61485ZM97.0209 7.40603C97.058 7.35035 97.0766 7.29466 97.0766 7.23898C97.0766 7.20186 97.058 7.16473 97.0395 7.12761C96.9838 7.07193 96.8724 7.07193 96.7982 7.14617C96.7611 7.18329 96.7425 7.23898 96.7425 7.29466V7.35035H96.297V7.2761C96.297 7.09049 96.3713 6.94199 96.4826 6.83063C96.594 6.71926 96.7425 6.66357 96.9281 6.66357C97.0395 6.66357 97.1323 6.68213 97.2251 6.73782C97.3179 6.77494 97.3921 6.84919 97.4293 6.942C97.485 7.0348 97.5035 7.10905 97.5035 7.20186C97.5035 7.31322 97.4664 7.42459 97.4107 7.53596C97.355 7.64733 97.2436 7.77726 97.0952 7.94431L97.0209 8.01856H97.5221V8.42691H96.2413V8.18561L96.7796 7.66589C96.9095 7.55452 96.9838 7.46172 97.0209 7.40603ZM96.2785 19.5638L96.7425 18.71C96.7982 18.5986 96.8353 18.5244 96.8539 18.4687C96.8724 18.413 96.8724 18.3573 96.8724 18.3016C96.8724 18.1531 96.8167 18.0232 96.7054 17.9118C96.594 17.8005 96.4455 17.7448 96.2785 17.7448C96.1114 17.7448 95.9815 17.8005 95.8701 17.9118C95.7587 18.0232 95.703 18.1531 95.703 18.3202C95.703 18.4872 95.7587 18.6172 95.8701 18.7285C95.9629 18.8213 96.0557 18.8585 96.1671 18.877L95.8887 19.3968L96.2785 19.5638ZM96.13 18.3202C96.13 18.2831 96.1485 18.2459 96.1671 18.2088C96.2042 18.1717 96.2228 18.1717 96.2785 18.1717C96.3156 18.1717 96.3527 18.1903 96.3713 18.2088C96.4084 18.2459 96.4084 18.2645 96.4084 18.3202C96.4084 18.3573 96.3898 18.3944 96.3713 18.4316C96.3156 18.4872 96.2228 18.4872 96.1671 18.4316C96.1485 18.3944 96.13 18.3573 96.13 18.3202ZM97.8933 11.1369H98.8028V11.5452H98.246L98.2088 11.6937H98.2274C98.3945 11.6937 98.543 11.7494 98.6543 11.8608C98.7657 11.9722 98.8214 12.1206 98.8214 12.2877C98.8214 12.4548 98.7657 12.6032 98.6358 12.7332C98.5058 12.8445 98.3573 12.9188 98.1903 12.9188C98.0418 12.9188 97.8933 12.8817 97.7819 12.7889C97.6706 12.6961 97.5963 12.5847 97.5592 12.4362L97.5406 12.3619H98.0047L98.0232 12.3991C98.0418 12.4362 98.0604 12.4733 98.0975 12.4919C98.1717 12.529 98.2645 12.529 98.3202 12.4733C98.3573 12.4362 98.3759 12.3991 98.3759 12.3248C98.3759 12.2691 98.3573 12.2135 98.3202 12.1949C98.2645 12.1392 98.2089 12.1206 98.1346 12.1578C98.116 12.1763 98.0789 12.1949 98.0604 12.2135L98.0418 12.232L97.6891 12.1578L97.8933 11.1369ZM99.601 2.69142H98.9327V2.28306H100.158V2.54292L99.3782 4.06496L98.9884 3.87935L99.601 2.69142ZM98.2088 18.9698V18.8956H98.6543V18.9513C98.6729 19.0255 98.6915 19.0626 98.7286 19.0998C98.8028 19.1555 98.9142 19.1555 98.9884 19.0998C99.0256 19.0626 99.0441 19.0255 99.0441 18.9884C99.0441 18.9327 99.0256 18.8956 98.9699 18.8585C98.9142 18.8213 98.8399 18.8028 98.7286 18.8028H98.6543V18.413H98.71C98.8028 18.413 98.8399 18.3944 98.8585 18.3759C98.8771 18.3573 98.8956 18.3573 98.9142 18.3202C98.9328 18.3016 98.9327 18.2831 98.9327 18.2645C98.9327 18.2459 98.9328 18.2274 98.9142 18.2088C98.8956 18.1903 98.8771 18.1903 98.8399 18.1903C98.8028 18.1903 98.7842 18.1903 98.7657 18.2088C98.7471 18.2274 98.7286 18.2459 98.71 18.2831L98.6914 18.3202H98.2645L98.2831 18.2459C98.3017 18.116 98.3573 18.0046 98.4316 17.9304C98.543 17.819 98.6914 17.7633 98.8585 17.7633C99.007 17.7633 99.1369 17.819 99.2483 17.9118C99.3597 18.0046 99.4153 18.116 99.4153 18.2459C99.4153 18.3387 99.3968 18.413 99.3411 18.4687C99.3225 18.5058 99.2854 18.5429 99.2483 18.5615C99.304 18.5986 99.3597 18.6357 99.3968 18.6914C99.471 18.7842 99.4896 18.877 99.4896 18.9884C99.4896 19.1555 99.4339 19.2854 99.304 19.3968C99.174 19.5081 99.0256 19.5638 98.8399 19.5638C98.6543 19.5638 98.5058 19.5081 98.3945 19.3968C98.2831 19.2854 98.2274 19.1369 98.2088 18.9698ZM100.158 15.8329L99.3782 17.355L98.9884 17.1694L99.601 15.9814H98.9327V15.5731H100.158V15.8329ZM98.3017 2.69142H97.6334V2.28306H98.8585V2.54292L98.0789 4.06496L97.6891 3.87935L98.3017 2.69142ZM100.622 5.14153H100.176V5.06729C100.176 4.88167 100.251 4.73318 100.362 4.62181C100.473 4.51044 100.622 4.45476 100.807 4.45476C100.919 4.45476 101.03 4.47332 101.104 4.529C101.197 4.56612 101.271 4.64037 101.309 4.73318C101.364 4.82599 101.383 4.90023 101.383 4.99304C101.383 5.10441 101.346 5.21578 101.29 5.32715C101.234 5.43851 101.123 5.56845 100.975 5.7355L100.9 5.80974H101.401V6.2181H100.121V5.9768L100.659 5.45708C100.77 5.34571 100.863 5.2529 100.9 5.17865C100.937 5.12297 100.956 5.06729 100.956 5.0116C100.956 4.97448 100.937 4.93735 100.919 4.90023C100.863 4.84455 100.752 4.84455 100.678 4.91879C100.64 4.95592 100.622 5.0116 100.622 5.06729V5.14153ZM97.0209 1.35499C97.058 1.31787 97.0766 1.28074 97.0766 1.2065C97.0766 1.15081 97.058 1.09513 97.0209 1.07657C96.9652 1.02088 96.9095 1.00232 96.8353 1.03944C96.8167 1.058 96.7796 1.07657 96.7611 1.09513L96.7425 1.11369L96.3898 1.03944L96.6126 0.037123H97.5221V0.445476H96.9652L96.9281 0.593967H96.9467C97.1137 0.593967 97.2622 0.649652 97.3736 0.761021C97.4849 0.87239 97.5406 1.02088 97.5406 1.18793C97.5406 1.35499 97.485 1.50348 97.355 1.63341C97.2251 1.74478 97.0766 1.81903 96.9095 1.81903C96.761 1.81903 96.6126 1.7819 96.5012 1.6891C96.3898 1.59629 96.3156 1.48492 96.2785 1.33643L96.2599 1.26218H96.7239L96.7425 1.2993C96.7611 1.33643 96.7796 1.37355 96.8167 1.39211C96.8724 1.42923 96.9652 1.42923 97.0209 1.35499ZM97.2622 2.33875C97.1694 2.28306 97.0395 2.24594 96.9095 2.24594C96.7054 2.24594 96.5383 2.32019 96.4084 2.48724C96.297 2.63573 96.2599 2.85847 96.2599 3.15545C96.2599 3.37819 96.2785 3.54524 96.3341 3.65661C96.3898 3.78654 96.4641 3.87935 96.5569 3.93503C96.6497 3.99072 96.7796 4.02784 96.9095 4.02784C97.058 4.02784 97.1694 3.99072 97.2622 3.93503C97.355 3.87935 97.4293 3.76798 97.485 3.63805C97.5406 3.50812 97.5592 3.34107 97.5592 3.11833C97.5592 2.89559 97.5406 2.72854 97.485 2.59861C97.4478 2.5058 97.3736 2.39443 97.2622 2.33875ZM97.1137 3.13689C97.1137 3.32251 97.0952 3.471 97.0395 3.54524C97.0023 3.61949 96.9467 3.61949 96.9095 3.61949C96.8724 3.61949 96.8167 3.61949 96.7796 3.52668C96.7425 3.48956 96.7054 3.37819 96.7054 3.13689C96.7054 2.9884 96.7239 2.87703 96.7425 2.80278C96.7611 2.72854 96.7796 2.69142 96.8167 2.67285C96.8353 2.65429 96.8724 2.63573 96.9095 2.63573C96.9467 2.63573 97.0023 2.65429 97.0395 2.72854C97.0766 2.78422 97.1137 2.89559 97.1137 3.13689ZM98.2088 6.25522C98.3759 6.25522 98.5058 6.19954 98.6172 6.08817C98.7286 5.9768 98.7843 5.84687 98.7843 5.69838C98.7843 5.53132 98.7286 5.40139 98.6172 5.29002C98.5244 5.21578 98.4316 5.16009 98.3202 5.14153L98.5986 4.62181L98.2088 4.43619L97.7448 5.29002C97.6891 5.40139 97.652 5.47564 97.6334 5.53132C97.6149 5.58701 97.6149 5.64269 97.6149 5.69838C97.6149 5.84687 97.6706 5.9768 97.7819 6.08817C97.8933 6.19954 98.0418 6.25522 98.2088 6.25522ZM98.0604 5.69838C98.0604 5.66125 98.0789 5.62413 98.0975 5.58701C98.116 5.56845 98.1532 5.54988 98.1903 5.54988C98.2274 5.54988 98.2645 5.56845 98.3017 5.58701C98.3388 5.62413 98.3388 5.64269 98.3388 5.69838C98.3388 5.7355 98.3202 5.77262 98.3017 5.80974C98.246 5.86543 98.1532 5.86543 98.0975 5.80974C98.0789 5.77262 98.0604 5.7355 98.0604 5.69838ZM93.5314 21.7726C93.6984 21.7726 93.8283 21.7169 93.9397 21.6056C94.0511 21.4942 94.1068 21.3643 94.1068 21.2158C94.1068 21.0487 94.0511 20.9188 93.9397 20.8074C93.8469 20.7146 93.7541 20.6775 93.6427 20.6589L93.9211 20.1392L93.5314 19.9536L93.0673 20.8074C93.0116 20.9188 92.9745 20.993 92.9559 21.0487C92.9374 21.1044 92.9374 21.1601 92.9374 21.2158C92.9374 21.3643 92.9931 21.4942 93.1044 21.6056C93.2158 21.7169 93.3643 21.7726 93.5314 21.7726ZM93.3829 21.1972C93.3829 21.1601 93.4014 21.123 93.42 21.0858C93.4385 21.0673 93.4757 21.0487 93.5128 21.0487C93.5499 21.0487 93.587 21.0673 93.6242 21.0858C93.6613 21.123 93.6613 21.1415 93.6613 21.1972C93.6613 21.2343 93.6427 21.2715 93.6242 21.3086C93.5685 21.3643 93.4757 21.3643 93.42 21.3086C93.4014 21.2715 93.3829 21.2529 93.3829 21.1972ZM93.2344 8.92807H93.8098V10.6543H93.3643V9.35499H92.9745L93.2344 8.92807ZM95.0348 4.49188H96.2599V4.75174L95.4803 6.29234L95.0905 6.10673L95.703 4.91879H95.0348V4.49188ZM98.2088 18.0418L97.4293 19.5638L97.0395 19.3782L97.652 18.1903H97.0023V17.7819H98.2274L98.2088 18.0418ZM94.0882 8.92807H95.3133V9.18793L94.5337 10.71L94.1439 10.5244L94.7564 9.33643H94.1068V8.92807H94.0882ZM97.8562 21.7169H96.5754V21.4756L97.1137 20.9559C97.2251 20.8445 97.3179 20.7517 97.355 20.6775C97.3921 20.6218 97.4107 20.5661 97.4107 20.5104C97.4107 20.4733 97.3921 20.4362 97.3736 20.3991C97.3179 20.3434 97.2065 20.3434 97.1323 20.4176C97.0952 20.4548 97.0766 20.5104 97.0766 20.5661V20.6218H96.6311V20.5476C96.6311 20.3619 96.7054 20.2135 96.8167 20.1021C96.9281 19.9907 97.0766 19.935 97.2622 19.935C97.3736 19.935 97.4849 19.9536 97.5592 20.0093C97.652 20.0464 97.7263 20.1206 97.7634 20.2135C97.8191 20.3063 97.8376 20.3805 97.8376 20.4733C97.8376 20.5847 97.8005 20.6961 97.7448 20.8074C97.6891 20.9188 97.5778 21.0487 97.4293 21.2158L97.355 21.29H97.8562V21.7169ZM94.181 12.9188L93.7912 12.7332L94.4037 11.5452H93.7541V11.1369H94.9792V11.3968L94.181 12.9188ZM95.5546 12.8631H96V12.529H96.1485V12.1206H96V11.0998H95.5917L94.8492 12.1578L94.8307 12.1763V12.5476H95.5546V12.8631ZM95.3875 12.1206L95.5731 11.8608V12.1206H95.3875Z" fill="#F2D080"/>
<path d="M106.283 0H110.719V24H106.283V0ZM113.429 0H126.404V4.51044H122.134V24.0186H117.605V4.51044H113.429V0Z" fill="#F2D080"/>
</g>
<defs>
<clipPath id="clip0_69_2569">
<rect width="126.422" height="24" fill="white"/>
</clipPath>
</defs>
</svg>
