<svg width="57" height="57" viewBox="0 0 57 57" fill="none" xmlns="http://www.w3.org/2000/svg">
<circle cx="28.5" cy="28.5" r="28.5" fill="#F6F7FA"/>
<path d="M38.0605 17.8125H41.7902L34.0276 25.5002C32.6705 26.8373 30.8417 27.5869 28.9365 27.5869C27.0313 27.5869 25.2026 26.8373 23.8454 25.5002L16.0764 17.8125H19.8125L25.7102 23.6496C26.569 24.4973 27.7272 24.9726 28.9339 24.9726C30.1407 24.9726 31.2988 24.4973 32.1577 23.6496L38.0605 17.8125ZM19.7673 39.1875H16.0312L23.8454 31.4534C25.2026 30.1162 27.0313 29.3667 28.9365 29.3667C30.8417 29.3667 32.6705 30.1162 34.0276 31.4534L41.8418 39.1862H38.1057L32.1628 33.2988C31.304 32.4511 30.1458 31.9758 28.9391 31.9758C27.7324 31.9758 26.5742 32.4511 25.7154 33.2988L19.766 39.1875H19.7673Z" fill="#23292F"/>
</svg>
