<svg width="156" height="29" viewBox="0 0 156 29" fill="none" xmlns="http://www.w3.org/2000/svg">
<path d="M16 0L19.592 11.056H31.217L21.812 17.889L25.405 28.944L16 22.112L6.59496 28.944L10.188 17.889L0.782959 11.056H12.408L16 0ZM47 0L50.592 11.056H62.217L52.812 17.889L56.405 28.944L47 22.112L37.595 28.944L41.188 17.889L31.783 11.056H43.408L47 0ZM78 0L81.592 11.056H93.217L83.812 17.889L87.405 28.944L78 22.112L68.595 28.944L72.188 17.889L62.783 11.056H74.408L78 0ZM109 0L112.592 11.056H124.217L114.812 17.889L118.405 28.944L109 22.112L99.595 28.944L103.188 17.889L93.783 11.056H105.408L109 0ZM140 0L143.592 11.056H155.217L145.812 17.889L149.405 28.944L140 22.112L130.595 28.944L134.188 17.889L124.783 11.056H136.408L140 0Z" fill="#F2D080"/>
</svg>
