<svg width="57" height="57" viewBox="0 0 57 57" fill="none" xmlns="http://www.w3.org/2000/svg">
<circle cx="28.5" cy="28.5" r="28.5" fill="#FEF2E5"/>
<path d="M40.4275 21.6173C40.0662 17.9243 36.8713 16.6904 32.8356 16.3481L32.8302 11.2244L29.711 11.239L29.7205 16.2331C28.8954 16.239 28.0529 16.2492 27.2322 16.2724L27.214 11.2437L24.0948 11.2583L24.1002 16.382C23.4263 16.4048 22.7653 16.4061 22.1044 16.4074L22.1 16.3901L17.7842 16.3939L17.7991 19.7334C17.7991 19.7334 20.1017 19.6858 20.0759 19.7291C21.3417 19.7224 21.7492 20.4647 21.8713 21.0952L21.891 26.9317C21.9817 26.9272 22.0941 26.9356 22.228 26.957C22.1201 26.9658 22.0077 26.9574 21.8997 26.9662L21.9239 35.1529C21.8771 35.5505 21.6321 36.1817 20.7507 36.1834C20.794 36.2092 18.474 36.1877 18.474 36.1877L17.8719 39.9214L21.9286 39.9094C22.6803 39.9037 23.4363 39.9152 24.1535 39.9182L24.1763 45.111L27.2954 45.0964L27.2857 39.9554C28.1368 39.9797 28.9619 39.9739 29.7871 39.968L29.8054 45.0701L32.9245 45.0555L32.9061 39.88C38.1545 39.5676 41.8241 38.2387 42.2684 33.2956C42.6281 29.329 40.7498 27.5613 37.7805 26.8584C39.576 25.965 40.7047 24.3212 40.4275 21.6173ZM36.0808 32.7241C36.0838 36.5993 29.4559 36.1755 27.3433 36.1752L27.3217 29.3105C29.4342 29.3108 36.0731 28.6847 36.0808 32.7241ZM34.6108 23.0281C34.6175 26.5533 29.0827 26.1664 27.32 26.1697L27.3082 19.9271C29.0708 19.9237 34.6039 19.3559 34.6108 23.0281Z" fill="#F7931A"/>
</svg>
