<svg width="57" height="57" viewBox="0 0 57 57" fill="none" xmlns="http://www.w3.org/2000/svg">
<circle cx="28.5" cy="28.5" r="28.5" fill="#F6F7FA"/>
<path fill-rule="evenodd" clip-rule="evenodd" d="M31.0356 29.2693V29.2667C30.8936 29.277 30.1616 29.3209 28.5284 29.3209C27.2245 29.3209 26.3065 29.2822 25.9838 29.2667V29.2706C20.9643 29.0498 17.2177 28.1758 17.2177 27.13C17.2177 26.0856 20.9643 25.2116 25.9838 24.9869V28.4004C26.3117 28.4236 27.2516 28.4792 28.5504 28.4792C30.1086 28.4792 30.8897 28.4146 31.0356 28.4017V24.9895C36.0448 25.2129 39.7823 26.0869 39.7823 27.13C39.7823 28.1758 36.0448 29.0472 31.0356 29.2693ZM31.0356 24.6345V21.5799H38.0252V16.9219H18.9942V21.5799H25.9838V24.6332C20.3033 24.894 16.0312 26.0198 16.0312 27.3676C16.0312 28.7154 20.3033 29.8399 25.9838 30.102V39.8906H31.0356V30.0994C36.7071 29.8386 40.9688 28.7141 40.9688 27.3676C40.9688 26.021 36.7071 24.8966 31.0356 24.6345Z" fill="#26A17B"/>
</svg>
